<svg xmlns="http://www.w3.org/2000/svg" width="1044" height="551"><g fill="#EEE" stroke="#FFF" stroke-width="2" fill-rule="evenodd"><path d="M135.534 215.011l-.75-1.35-.886 1.154-1.267.625-.385 2.011-2.904-1.22-1.365 1.273-1.895-1.996-.545 2.118-1.793.52.51 2.394 1.494-1.079 1.136 1.36 2.435-.117.665-1.442.818 1.307 1.718-.88 1.687 1.096 2.655-.216.41-1.66-.806-2.494.327-.98c-.79.1-.884-.137-1.258-.424h0zm6.034-81.479l-3.103-1.035-4.138 1.035-1.034 4.137 1.034 3.104 4.138 2.069 3.103-2.069 2.069-3.104zm174.93-15.699h-5.135l-4.108 4.092 1.027 4.093 5.135 1.023h1.027l1.027-1.023h1.027l1.027-1.023v1.023h0l-1.027 1.023h1.027l1.026-1.023v-4.093l-2.053-4.092zm47.24 23.53l2.053 1.024v3.069l3.081 2.046 2.054-3.07-1.027-3.068-1.027-3.07h0v-2.046l-1.027-2.046h-2.054v2.046h-2.054v5.116h0zm-28.755-1.022l-3.081-1.023-4.108-1.023-5.134 1.023h0l1.026 1.023v2.046h-2.054l-1.026-1.023v-1.023l1.026-1.023-3.08-1.023h-4.108l-1.027-1.023-6.162 1.023-6.161-1.023-1.027-1.023h0v1.023h-1.027v3.069h0l-1.027-2.046-2.054-1.023-1.027-1.023-4.108 3.069-4.108 4.092-5.134-2.046-4.108-3.07 1.027-3.068 1.027-2.047-1.027-2.046-1.027-2.046 4.108-2.046 3.08-1.023 5.135 3.069 1.027-1.023 1.027-1.023v-1.023h1.027v-6.138l-3.08-4.093-4.109-3.069-1.026-3.07-1.027-1.022v8.184l-6.162 5.116-5.135 4.092v6.138l-4.108 3.07-2.053 2.046v3.069l4.107 6.138 3.081 6.139 1.027 2.046 1.027 1.023v1.023h2.054v-1.023l2.054-1.023h2.054l2.054 1.023 2.054 2.046h7.188l8.216 1.023 2.054-1.023 1.027-1.023 1.027 1.023h4.107l5.135 4.092 6.162 5.116 30.808 18.415 1.027 1.023 1.027 1.023 6.162-1.023 7.188-2.047v-1.023l1.027-2.046 1.027 1.023h1.027l2.054-1.023 2.054-1.023 2.054-1.023 2.054-1.023 1.027-1.023h2.054l1.986.772 2.122-2.818v-2.046l-1.027-1.023-2.054-3.07 1.027-1.022 1.027-1.023 2.054-2.046v-2.047l-3.081-5.115-4.108-4.092-5.135-4.092-1.027-1.023-1.027-1.023-1.026 1.023-1.027 1.023h0l-1.027-1.023h-1.027l-1.027 1.023v6.138l-1.027 6.138h0l-1.027-1.023h-1.027l-2.054 1.023-2.054-1.023h-1.027l-1.026 2.047-3.081 1.023-1.027-2.047 1.027-2.046 2.054-1.023h1.027v-2.046l-1.027-2.046h1.027l-7.19-1.023-6.16 1.023-2.055-3.07-6.161-2.046-4.108 1.023v1.023l-1.027 1.024-1.027-2.047h-2.054l-1.026 1.023h-1.027l1.027-1.023v-2.046l-2.054-1.023h-2.054l1.027-1.023v-1.023h2.053l2.054 1.023 1.027-2.046 1.027-2.046h1.027l1.027-1.023v-1.023h3.08zm-172.3 52.306l1.027-1.031-3.08-1.031-1.027 1.031 1.027 1.031h2.053zm7.187 1.032h-1.027l-1.026 1.031-3.08-2.063v4.127l-1.027 3.094-2.054 2.063v-3.094l-3.08 1.031-1.026-1.031 1.026-1.032h1.027l-1.027-6.189h-2.053l-2.054 1.032 1.027 1.031-1.027 1.032-1.026 1.031h-2.054v2.063l-1.027 2.063v5.158l1.027 1.03-3.08 1.032-3.08 4.126v4.126l3.08 3.095 4.107-1.032 5.134-2.063 5.133 2.063 6.16-4.126 7.188-3.094v-1.031l1.026-2.063-4.106-5.158v-5.157l-3.08-3.095h0zm95.918 118.079v3.063l-2.051 4.084 1.026 1.021 1.025 1.021h-4.102l-1.026 1.021h-1.025l-2.052-1.021-1.025 2.042-1.026 1.021h-1.025v-2.042l-1.026-1.021-2.051 1.021v-2.042l1.026-2.042-3.077-2.042-3.077 1.021-1.025 1.021v1.021h-1.026v1.02l2.051 7.147v1.021h4.103v1.021l1.025 1.021 6.154-1.021 5.128 1.021-2.052 3.062-3.076 3.063-1.026 2.042-1.025-1.021-1.026-1.021h-1.026l-2.051 1.021h-2.051l-3.077 5.105-3.077 5.104-1.025 1.021-2.051 2.042v2.042h-1.026v1.021l1.026 1.021v2.042h1.025l1.026-1.021 3.077 1.021 3.076 3.063-2.051 1.021-2.051 3.062h1.026l4.102 1.021 4.102-1.021 1.026-3.062v-2.042l1.025-1.021h1.026l1.025-1.021h1.026l4.102 2.042 3.077 2.042-2.051-4.084-2.052-3.063 2.052-2.042h2.051l-2.051-1.021-2.052-2.042h1.026l1.026-1.02 1.025-1.021-1.025-1.021h4.102v1.021l1.025 1.021 3.077 1.02 2.051 1.021v1.021l1.026 1.021 1.025-1.021h3.078l3.077 1.021v-1.021h0v-1.021l-1.026-2.041 2.052-1.022v-2.041l-3.077-2.042-4.102-3.063 2.051-2.042 1.025-1.021 1.026-2.042v-1.02h1.025l1.026-1.021h2.051l1.026-4.084v-5.104l-1.026-2.042v-1.021l-1.025-1.021-2.052-1.021h-1.025l-1.026 1.021-5.128-3.063-5.128-4.084v-1.02h-2.051l-1.025 1.02zm-80.66-28.87l-1.023-2.069-4.092-1.035v-2.069l-3.069-2.068-2.046-3.104-4.093 6.207-2.046-1.035h-4.092l1.023 4.138-1.023 4.138 1.023 2.069v2.069l-3.069 4.137-3.069 2.069 3.069 4.138 6.138 1.034 1.023 1.035v1.034l2.046-3.103 2.047-5.172h3.069l2.046-1.035h1.023l2.046 1.035h2.046l2.047 2.069 3.069 2.069 1.023-1.035h2.046l2.046-3.103 1.023-2.069-2.046-3.103v-3.104l-1.023-2.068h-5.116l-2.046-2.069zm165.936 20.036l-4.121 1.03-1.031 1.031-1.03 1.03h-1.03l-2.061-1.03h-5.152l-1.03-1.031h-1.031l-2.06 1.031-1.031 2.061h-3.09l-3.091-1.031v1.031l-1.03 2.061v4.122l-2.061 1.031h-4.122v-1.031h-3.091l-2.06 1.031-2.061 4.122-1.03 5.152v1.031h1.03l-1.03 1.03h-2.062l-1.03 2.061v4.122l2.061 1.031 2.061 1.03v4.122h3.091v1.031l1.03 1.03 1.03-1.03 1.031 1.03 2.06 3.092 1.031 3.092 1.03 1.03 2.061 1.031h1.03l1.03 3.091 2.061 4.122h1.03v-1.03l1.031 1.03v1.031h1.03l2.061 1.03 2.061 2.061 1.03 2.061h2.061l1.03-1.03v-2.061h1.03l2.06-1.03-1.03-1.031v-1.03h1.03l1.031-1.031-1.031-1.03 1.031-1.031 2.061-1.03v-1.031l1.03-1.03h1.03v-2.061l1.03-1.031h1.031v-3.091l2.061 1.03 3.091-1.03-1.031-7.214v-1.03h-3.09l-1.03-1.031 1.03-1.03 2.061-1.031v-6.183l3.091-2.061 3.091-2.061 1.03 1.03 1.03 2.061-1.03 1.031v2.061h2.061l2.061 1.03 2.06 1.031 3.092 2.061 1.03-1.03h2.061l7.211 2.06 8.243-3.092-2.061-2.061h-3.091l-1.03-1.03-1.03-1.031-3.091-2.061-2.061-1.03v-5.153h-1.031l-2.06-2.061 1.03-1.031v-1.03l-1.03-1.03h-1.031l-1.03-4.123-2.061-3.091-1.03-1.031h-1.03l-1.031-1.03-3.091-1.031h-3.091l-1.03-1.03-1.03-2.061h-2.061l-1.031 1.03-2.06 3.092zm-232.459-77.048h-1.617l-.304 1.036-1.111 1.036h-.808l-.506-1.036-2.425-1.036-2.324-1.036h-.303l-.404 1.036h-2.021l-1.717 1.036-.505 1.036-.708 1.036.708 5.181 2.223 4.145 1.111 1.036 1.01 1.036-.202 2.073.101 3.108 1.718 2.073 1.313 1.036h1.92l.404-1.036.809-1.037h1.616l1.314-1.036h1.617l4.951-8.289-.101-2.073 1.571-2.129h.992l-1.047-.979v-1.036l.015-2.087.04-1.051h-1.504l-2.145-3.119-1.256.04-1.415 1.036h-1.011z"/><path d="M315.793 253.117l-3.089-2.049-3.089-2.049v-3.073l-1.03-1.024v-1.025l-2.06 1.025v1.024l-3.089 4.098-2.059 4.098v2.049l-5.149 5.123-5.149 5.122-2.059 1.025-2.06 1.024-3.089 3.073 2.059 5.122-2.059 3.074v4.098h0l-3.09 3.073-5.148 1.025-1.03 3.073v2.049h-3.09l-2.059-2.049-2.06 2.049-2.059 3.074h-5.149l-2.059 1.024h0v1.025l-1.03 3.073-2.06 2.049v3.074h1.03l1.03 1.024 4.119 2.049 3.089 2.049h1.03l1.03-1.024h2.059v1.024l5.149 4.098 5.149 3.074 1.029-1.025h1.03l2.06 1.025 1.029 1.024v1.025l1.03 2.049 3.089-2.049 3.089-1.025 2.06 1.025 2.06 2.049h2.059l1.03 1.024 2.059 2.049 3.09-2.049h5.148l-1.029 2.049h2.059l1.03-1.024h-1.03v-1.025l1.03-5.122 2.059-4.098 2.06-1.025h3.089v1.025h4.119l2.06-1.025v-4.098l1.029-2.049v-1.024l-1.029-1.024v-11.27l-3.089-2.049-3.089-2.049 1.029-4.098 1.03-4.098v-2.049h0l-2.059-1.024v-3.074l1.029-2.049 1.03-4.098 2.059-4.098-2.059-3.073-1.03-2.049-3.089-7.172zm-173.989-17.728l-2.069-1.04v1.04l-6.152-.062-2.126 1.103h-1.013l-1.056-1.041-1.035 1.041-2.069 1.04h-1.448l-5.07 8.325.725 2.081v2.081h2.276l2.38 1.041-.311 2.081.414 2.081 2.069 1.041h3.104l1.035 2.081 1.035 1.04h2.069l1.035-1.04 5.173 3.121h2.069l.83-.417 1.24-.623h0v-1.042l1.034 1.04h2.07l-1.035-2.081-2.04-.574 2.04-.465h2.069l1.035-1.041 2.069-1.04v-3.122l1.035-1.04v-2.082l-2.069-1.04h-1.035l1.035-1.041v-2.081l-4.139-5.203-3.105-4.162zm-38.219-6.121l-4.033-1.04-4.032-1.041-.403 1.041h-.707l-2.218 1.04H90.58l-.403 1.041-.303 2.081-2.419 1.041-1.109 2.081 1.31 1.04 1.714 1.041v3.122l2.621 1.04 1.915 1.041.101 2.081.202 3.122 1.008 1.04 1.008 1.041-.302 1.04v2.081h1.512l.303 1.041h.706l3.327-1.041 1.209 1.041.303-2.081-.101-1.041.504-1.04.605-2.082 4.234-2.081-.101-3.122.202-2.081-1.008-1.04-1.109-1.041-2.219-4.162-.706-5.203zm283.314 100.063l-8.185 3.093-7.161-2.063h-2.047l-1.023 1.031-3.069-2.062-2.046-1.031-2.046-1.031h-2.047v-2.062l1.023-1.031-1.023-2.062-1.023-1.031-3.069 2.062-3.069 2.062v6.187l-2.046 1.031-1.023 1.031 1.023 1.031h3.069v1.031l1.023 7.217-3.069 1.031-2.047-1.031v3.093h-1.023l-1.023 1.031v2.063h-1.023l-1.023 1.031v1.031l-2.046 1.031-1.023 1.031 1.023 1.031-1.023 1.031h-1.022v1.031l1.023 1.031-2.046 1.031h-1.023v2.062l2.046 3.093-1.023 5.155v2.063h1.023l-3.069 4.124 1.023 2.062 1.023 1.031 1.023 1.031h1.022l1.023-1.031h1.023v1.031h1.023v-1.031l1.023-1.031v7.217l2.046-1.031v-1.03l2.047 1.031 2.046 2.062 1.023 1.031h2.046v1.031l-1.023 1.031-2.046-1.031-2.046 3.093 1.023 2.062 2.046-1.031 5.115 3.094h1.023l4.093-2.063h3.069l2.046-2.062h2.047l1.023-3.093 1.023-2.062 1.023-1.031v-1.031l-1.023-3.093-1.023-2.062 1.023-5.156 2.046-2.062-1.023-1.031v-2.062h2.046l2.046-2.062 2.047-1.031h4.092v-2.063l-1.023-2.062 1.023-2.062 2.046-1.031v-2.062l1.023-2.062v-1.031l1.023-2.062-1.023-1.031-1.023-2.063 1.023-1.031v-2.062l-1.023-2.062v-4.124l-1.023-1.031v-1.031h1.023v-3.093h1.023v-3.094zM131.88 152.297v-1.03h-3.077l-2.051 1.03-1.025-2.06-1.436-1.03-1.949 1.03h-1.64l-5.127 2.06.718 4.118 1.025 3.09-.923 1.029h-1.23l-.103 1.03-.205 1.03-3.076 1.029-.513 2.06-1.846 2.06.205 2.059 1.333 2.06 1.436 1.029 5.742 2.06 5.641 1.03 1.949 2.059h1.025l3.077-1.029 3.076-1.03 1.026-1.03 1.025-1.03 3.076 2.06 2.051 3.089h1.026l1.025 1.03 2.051 1.03 1.026-1.03h1.025l2.051 1.03 1.026 2.059h1.025l2.051 1.03v-6.179l-1.025-1.029h-1.027v-1.03h-1.025v-2.06l1.025-3.089-2.051-3.089-1.025-2.06v-3.089l-2.051-2.059v-1.03l-1.026-1.03h-4.102v-4.119l-1.025-1.029-1.025-1.03h0v-1.03l-2.052 1.03-2.051 1.03-2.051-1.03z"/><path d="M119.166 245.489h-1.622l-1.318 1.028h-1.622l-.811 1.028-.406 1.027h-1.926l-1.318-1.027-1.723-2.056-4.258 2.056-.609 2.055-.506 1.028.101 1.028-.304 2.055-1.217-1.028-3.345 1.028.608 2.056 1.926 2.055 2.839 1.028 2.433 1.028v1.028h-.101l.912 1.027h1.217l.912 2.056-.304 1.028 2.535 2.056 2.737 3.083 1.927-1.028 1.622-1.027-1.014-6.167 3.548-4.112 4.461-3.083-.405-2.056.304-2.056-2.332-1.027h-2.231v-2.056z"/><path d="M88.749 238.41v-1.015l-1.731-1.015-1.324-1.015h-4.075l-.714 1.015-1.834-2.031-1.935 2.03-1.019 1.016-1.834-1.016-.305 1.016-.204 1.015-2.547 2.03 1.731 3.046 2.343 3.046-.305 1.015-.51 1.015h.51l.305 1.015h-.508l-.509 1.015 1.936 2.031h3.667l.917 2.03 1.12 1.015 4.788 2.031 6.112 3.046.917 1.015.917 2.03 1.426-2.03 1.12-2.031 1.325 1.016h1.528v-1.016l.612-1.015-.204-1.015h0l-1.936-2.031-.611-2.03h-.714l-.305-1.015h-1.528v-2.031l.305-1.015-1.018-1.015-1.019-1.015-.204-3.046-.102-2.03-1.935-1.016-2.649-1.015v-2.03zm219.57 85.21h-5.093l-3.055 2.064-2.037-2.064-1.019-1.033h-2.037l-2.037-2.064-2.037-1.033-3.056 1.033-3.055 2.064v5.162l-1.019 4.129h-2.037l-1.018 1.032H279.8v1.032l-1.018 2.065-1.019 1.032-2.037 2.065 4.074 3.097 3.056 2.064v2.065l-2.037 1.032 1.018 2.065h0v2.064l5.093 1.033 5.092 1.032 2.037 1.032 1.019 1.032 1.018-1.032 1.019-1.032h2.037l3.056 1.032 1.018 1.032 8.148 1.033 8.148 1.032 1.019-1.032 1.018-1.033h1.019l2.037 1.033 1.018-1.033h1.019l-2.037-4.129-1.019-3.097h-1.018l-2.037-1.032-1.019-1.032-1.018-3.097-2.038-3.097-1.018-1.032-1.019 1.032-1.018-1.032v-1.033h-3.056v-4.129l-2.037-1.032-2.037-1.032v-4.129l1.018-2.065zM35.503 121.574l1.214-1.012-1.214 1.012-1.113 1.013h.101l1.012-1.013zm10.018 3.038h0l-5.768-1.012-1.417-2.026-1.619-1.012-1.214 1.012-1.012 1.013h.405l1.113 3.038-2.328-1.013-3.035-1.012 4.25 8.102 4.857 7.089 2.833 4.05h.91l1.114-1.012 3.541-1.013-.91-7.089-.304-3.038-.1-3.038-.507-1.013h-1.315l-1.113 1.013-1.113 1.012-1.822-2.025-.709-2.026h5.262zm134.061 100.767l-2.031-1.012-2.03-1.013-1.015-2.026-1.016-2.025-1.015 1.013-2.03 1.012-7.107-4.051-5.076-2.025-5.076 2.025h0l1.015 3.039-1.015 4.051h4.061l1.015 2.025 1.015 2.026 3.046 3.038h1.015v3.038l2.03 1.012 2.031 1.013h1.015l1.015 1.013 1.016-1.013 2.03-2.026 2.031 1.013 2.03 1.013 2.031-1.013 1.015-2.025 2.03-1.013h1.015v-1.013l-2.03-3.038h-3.046l1.015-1.013 1.016-2.025z"/><path d="M87.109 212.182l-1.021 1.023H81.9l-1.941-1.023h-2.145l-1.736-3.069-3.065-1.023-.919 1.023-.307 2.046-.613 1.023h-.715l-1.532 2.047-1.635 2.046-.919 2.046h-.716l.817 1.023-.204 1.023h.613l2.554 1.023 1.941-1.023.919 1.023.613 2.046 1.941 1.023 1.634 1.023 2.452 3.069.306 3.069-1.327 2.047-.205 3.069 1.94-2.047 1.839 2.046.716-1.023h4.086l1.124-2.046 2.451-1.023.307-2.046.408-1.023h1.635l2.247-1.023h.715l.409-1.023-2.349-4.093 1.021-1.023 1.634-2.046-1.021-5.115-.613-4.092-3.575 1.023h-3.576zm30.53 119.476h-1.337l-1.132-1.028-.206 1.028h-.206l-.823-1.028h-1.338l-1.749 1.028 1.029 2.056.618 3.083 1.235 1.028.823 1.028-1.338 1.028-.926 2.055.309 3.084 1.029 2.055h2.675l2.161 2.056h-1.75l-2.263 1.028-.515 5.139-.411 4.111-3.705 1.028h-3.807l.205 1.028 1.029 1.027-.411 1.028-.309 1.028 1.029 1.028.721 1.028-3.498 1.027-.926 3.084.411 1.028h2.058l.721 1.027.721 1.028v1.028h1.029l-.206 1.028h.926l.618-1.028 2.984 2.056.103 1.027h.103l1.131-1.027h.514l-.206 1.027.721-1.027 1.029-1.028.617 1.028-.103 1.027-.823 1.028-.411 1.028 1.234-1.028 1.235-1.028 2.881-2.055 2.984-1.028.515 1.028-1.852-8.223h.615l1.235 2.056h2.058l1.029-7.195v-8.222l-2.058-2.056-1.646-2.056-1.029 1.028-1.029-1.028.926-3.083 1.748-2.056-.411-3.083-1.029-3.084 2.47-2.055-1.029-2.056-.618-2.056-3.087-1.028h-3.292zm732.935-64.444l-2.046-2.05-1.023-1.024-1.023 1.024-1.023 1.025-1.023-1.025h-1.023l-2.046 2.049-2.046 3.074-1.023-1.024-1.023-1.025-1.023 1.025h-2.047l-5.115-2.05h-4.092l-1.023 6.148v6.148l-1.023 1.024-2.046 1.025v2.049l-1.023 1.025v1.024l-1.023 1.025v1.024l-1.023 4.099 2.046 3.074 1.023 5.123 1.023 4.098 2.046 2.049 1.023 3.074-1.023 1.025-2.046-2.049-1.023 1.024v1.025l-1.023 4.098-5.115 3.074h0l-2.046 1.025h-1.025l-2.046-1.025h0l-1.023 2.05v2.049l-1.023 1.024-5.115 2.05-5.116 2.049h-2.046l-2.046 2.049-1.023 2.049-1.023 6.148-1.023 3.074 1.023 4.098h-3.069l2.046 3.074 3.069 2.05-1.023 1.024-1.023 1.025v3.074l-2.046 1.024-1.023 2.049h2.046l1.023 1.025 2.046 1.025 1.023 2.049v2.049l-1.023 1.025-2.046 1.025v4.098l-1.023 5.123 4.092 1.025 3.069-2.049 1.023 1.024h1.023l2.047-1.024 1.023-1.025 2.046 1.025 1.023 1.024h2.046l-1.023 3.074-2.046 2.049v2.05l-2.046 2.049-2.047 2.049-1.023 1.025-1.023 1.024v6.148l-3.069 2.049v4.099l3.069 1.024h4.093l2.046 2.05 2.046 3.074h4.094l1.023-1.025 2.046-1.025 4.092-2.049 2.046-2.049 1.023-2.049h2.046l3.07-1.025 1.023-1.025h1.023l.911.305 2.157.72 1.024 3.074v4.098l1.023 2.049v2.05l-1.023 1.024h-4.092l-5.116 1.025h0l1.023 2.049v4.099l-2.046 1.024-2.046 1.025-1.023 1.024-1.023 2.05v2.049l-3.069 2.049-3.071 2.049 1.023 2.049v1.025l-1.023 2.049-1.023 3.074v6.148l1.023-1.025h0l1.023 1.025v1.024h1.023l1.023-1.024 1.023 1.024v1.024h1.023l2.047 1.025v7.172l1.023 3.074v3.074l4.092-2.049h1.023l1.023-1.025 1.023-2.049h2.046l2.047 1.025 2.046-1.025h2.046l1.023 1.025 3.069 3.074h1.023l2.046 1.024h3.07l2.046-2.049h4.092l2.046-1.024 1.023 2.049h0l1.023 2.049-3.069 2.05-1.023 2.049 1.023 2.049 1.023 1.025 2.046 2.049-2.046 3.074-1.023 1.025v5.123l1.023 5.123 2.046-2.049v-2.05l1.023-3.074 2.046-3.074h1.023l1.023 1.025 1.023-1.025 1.023 1.025v2.049l1.023-1.024 1.023-1.025 1.023 1.025 1.023 1.024 5.116-2.049 4.092-3.074v-4.098l4.092-2.05 2.046-6.147h-4.092l-1.023-1.025v-1.025l-1.023-1.025-1.023-1.024v-1.025h2.046l2.046-3.074 4.093-2.049h0l1.009.844 2.06 2.23 1.023 2.049-1.023 2.05v2.049l2.046 1.024h3.069l2.046-9.221 2.046-7.172v-1.025l-1.023-2.049v-4.099l-1.023-1.024v-3.074l-1.023-3.074-1.023-2.049-1.023-2.05v-3.074h0l-5.115-14.343v-2.05l1.023-5.123-1.023-4.099 1.023-2.05-1.023-1.024-1.023 1.024-2.046-3.074v-3.074h-1.023l-1.023-1.024-4.092-2.049h3.069l1.023-2.05-1.023-2.049h-2.046l-2.047-1.025h0l-1.023-1.024h-3.069l-3.069-2.049v-1.025l-2.046-1.025h-1.023l-1.023-1.024h-2.046l-1.023 1.024-1.023 1.025-3.069 1.025h-1.023l1.023 2.049v8.197l-1.023-2.05v-4.097h0l-2.047 4.098-5.115 5.123v-3.073l2.046-4.099h-1.023l-1.023 1.025h-1.023l-2.046-1.025 1.023-1.024 1.023-1.025v-1.024l-3.069 3.073 1.023 1.025v3.074h-2.046v1.024h0l-2.046-5.123-3.07-5.123-7.161 3.074-5.115-2.049 2.046-3.074 1.023-2.049 2.046-3.074 1.023-3.074 1.023-2.049 1.023-1.025 3.069-5.123 1.023-6.148 1.023-1.024 1.023-1.025v-1.024l-1.023-1.025 1.023-2.049v-3.074l1.023-1.025 2.047-5.123 2.046-4.098 1.023-2.049v-2.05l1.023-1.024 1.023-2.049v-5.124l1.023-4.098 2.046-2.049 1.023-8.197 5.115-7.173h1.023l1.023-1.024 1.023-1.025 1.023-1.024 5.116-2.05 5.115-3.073h1.023l1.023-1.025h1.023v2.049l2.046 1.025 1.023-2.049-1.023-3.074h4.092v-3.074l-3.069-3.074-4.092-2.049h-4.092l-3.07-1.025v-4.098l3.07-1.025-1.023-2.049v-2.049h1.023l-3.07-6.148-6.138-4.099-4.092 1.025-5.115 1.024v3.074l-1.023 3.074zM76.425 377.033l-.413-1.047-1.55 1.047-2.273 1.047h-.931l.827 1.047 2.274 2.094-2.17 4.188h-.207l-.413 1.047h0l-3.307 1.047-2.894-1.047 1.137-1.047h-4.031l.31 1.047-.206 1.047h1.446l1.654 2.094.517 2.094.206 1.047 1.137 1.047 1.137 2.094 2.171-1.047h2.273l1.137 1.047.413-1.047h3.72l1.034-2.094 1.756-3.141 2.583-1.047 2.274-1.047.31-2.094-.517-2.094h-3.513l.103-1.047.31-1.047h-1.343l-1.447-1.047-.103-1.046-.207-1.047h-2.377l-.827-1.047zM249.467 263.87l-2.074-1.035-1.036-1.034v-1.034l-1.037-1.035h-2.074l-2.074-1.034-2.073-2.069-4.148 2.069-2.073 6.206-2.074 1.035h-2.074l-1.036-1.035h-2.074l-2.074 3.103-1.036 4.138-1.037 1.034h-2.074l-1.037 4.138-1.037 3.104 1.037 1.034h-1.037l-2.073 1.034h1.037l1.036 1.035 2.074 2.069h3.111v1.034h1.036l1.037 1.034 2.074-1.034v-1.034l-1.037-1.035 2.074-1.034 2.074 1.034h-1.037v4.138l1.037-1.034 2.073 1.034-3.11 2.069h-3.111l1.037 2.069h1.037l2.074 2.069 1.036 2.069 2.074 1.034 2.074-1.034 3.11-1.035 3.111-1.034-1.037-2.069-1.037-3.103h-1.036l-1.037 1.034v-5.172l1.037-1.034h1.036l1.037-1.035v-1.034l1.037 1.034 1.037-1.034 4.147-9.31 3.11-9.31z"/><path d="M67.898 375.788l-1.509.994h-1.207l-.805-.994h-1.006l-1.107.994-.604-.994-.805-.995-2.213.995-2.314.994-.905-.994h-.906l1.509 4.973.101 1.989 2.918.995 3.521.994h3.924l.804-2.984-1.006-.994 1.107-1.99 1.61-1.989h.503l.302.995h2.213l-.402-2.984-2.516-1.99zm105.253-111.446l-3.11 1.04-2.074 1.041h-1.037v-1.041l-2.073 1.041-2.074 1.041-2.074-4.163-2.074-7.284-2.074-1.041h-2.073l-1.037-1.04-2.074-2.081v3.121l-2.074 1.041-1.036 1.041h-2.074l-2.044.465 2.044.574 1.037 2.081h-2.074l-1.036-1.04h0v1.04l-2.074 1.041 1.037 3.122 3.11 2.081 1.037-1.041 1.037-1.04 2.074 4.162 3.11 6.244h2.074l2.073-2.082 3.111 3.122 4.147 2.081h4.148l2.073 1.041 4.148-6.244 1.037-4.162h-1.037v-1.041h-1.037l-1.037-1.04 1.037-1.041-1.037-1.04zM211.34 77.145l-4.111-5.122-3.083 7.171-4.112 5.121h-3.083l-3.084 2.049h-1.027v1.024l-1.028 1.025-3.084 1.024-1.027 3.073 1.027 1.025h0l-1.027 1.024-3.084 3.073-1.028 4.097-3.083 1.025h-3.084l-1.027 7.17-1.028 8.195-13.362 2.049-14.389 1.024v2.049l2.056 3.073v-1.024l1.027 1.024h7.195l1.028-1.024h0l1.028 10.244-3.084 11.268h6.167l1.028 1.024h2.055l-1.027-2.048v-1.025h1.027l2.056 2.049 2.056 2.049h2.055l1.028 1.024 1.028 4.098h0l1.028 1.024 1.027-3.073-1.027-5.122 1.027-5.122v1.025h1.028l1.028-2.049 1.028-2.049v3.073h1.027l1.028-3.073 1.028-2.049v3.073h0l1.028-2.048 1.027-1.025-1.027 3.073-2.056 4.098h1.028l1.028-2.049v1.024l2.055 1.025 2.056-4.098v-1.024h-1.028v-1.024l-1.028 1.024h0l1.028-3.073 1.028-3.073 1.028 9.219-5.139 7.171-1.028 3.073-1.028 4.097h2.056l2.056 2.049 3.083 3.073 1.028-1.024 1.028-1.025.679.678.348.347 2.056-3.073 1.028-3.074h0v-1.024l2.055-2.049 2.056-2.048-2.056-3.074-1.027-4.097 2.055-2.049 1.028-2.049 1.028-3.073 1.028-3.073 1.027 1.024 1.028 1.025 2.056-1.025 2.056-2.048v-2.049l1.027-2.049v-3.073h-2.055v-5.121l1.027-1.025h0l4.112-5.122 1.027-2.048 1.028-3.074h1.028l1.028 1.025 2.055-2.049 1.028-1.024v1.024h1.028l1.028-6.146-2.056-6.147h3.083l-1.027-2.048-1.028-2.049 1.028-1.025h-1.028l-1.028-1.024-3.083 1.024-1.028-3.073 1.028-3.073-4.112-5.122zm-98.96 256.987l-1.03-2.037h-3.09v-2.038l-1.545-1.018-.722 2.037-1.339 2.037-3.811-2.037-5.046 2.037-.618 1.019 1.751 1.018h3.09l-1.442 3.056-2.883 2.037-.206 1.018-.206 1.019H90.03l-.824 2.037-1.133 1.018h-.412l-.515-1.018-1.545 1.018-1.854-1.018-3.194-7.13-4.428-3.055-2.781 1.018-3.708 1.019.721 1.018h1.03l-.103 1.019.206 1.018 1.236-1.018h1.339l.309 1.018-.618 1.019h6.18l.927 3.055.824 2.037 1.545 2.037 1.236 2.037-.722 5.093.618 2.037 1.442 2.037 2.369 5.093.824 5.092.722 1.019 1.648 1.018 3.09 5.093 2.162 3.055h1.133l.722 1.019.824-1.019h.617l3.194-2.037 3.399-1.018.721-1.019h1.03v-1.018l-.721-1.019-.722-1.018h-2.06l-.412-1.019.927-3.055 3.502-1.019-.722-1.018-1.03-1.019.309-1.018.412-1.019-1.03-1.018-.206-1.019h3.811l3.708-1.018.412-4.074.515-5.093 2.266-1.018h1.75l-2.163-2.037h-2.676l-1.03-2.037-.309-3.056.927-2.037 1.339-1.019-.824-1.018-1.236-1.019-.618-3.055z"/><path d="M72.197 378.851l-.805-1.035h-1.308l-.302-1.034h-.503l-1.61 2.069-1.106 2.069 1.006 1.034-.805 3.103-1.107 1.035 2.817 1.034 3.22-1.034h0l.402-1.035h.201l2.113-4.137-2.213-2.069zm389.422 58.529h-1.033l-1.033-1.025-1.033-1.026-1.032 1.026h-1.033l-1.033-1.026-2.065-2.051-3.098 1.025-1.033 2.052 1.033 2.051-2.066 2.051-1.032-1.025h-3.099l-1.032-1.026-1.033-1.026-1.033 2.052-1.033 2.05h-2.065l-1.033 1.026-1.033 1.026h-7.229l-2.065 1.025-1.033 1.026h0l-2.065-1.026-2.066 1.026 2.066 2.051 2.065 2.051v4.103h-3.098l2.066 5.127 3.098 4.103 1.032 3.077 1.033 3.076 1.033 1.026h1.032l2.066 1.026 1.033 1.025 4.131-1.025 3.098-1.026v1.026l-1.033 1.025 5.164 7.179h4.131l2.065-1.025 1.033-2.052 5.163 1.026h3.099l1.032-1.026h1.033l1.033 1.026 2.065-3.077 1.033-2.051-1.033-2.051v-1.026h-1.033l-1.032-1.024 3.098-2.052h2.066v-2.051l-2.066-1.025v-4.103h-1.033l-1.032-1.025v-7.18l-2.066 1.026-2.065 1.026-3.099-1.026-1.032-3.077v-1.025l1.033-1.026v-3.077l2.065-1.025 2.066-2.052v-3.076h-1.033zM247.876 297.893l-1.029-1.023v-1.024h-3.09l-3.089-1.023-3.089 1.023-3.089 1.023-2.06 1.023-2.059-1.023-4.12 2.046-4.119 1.024-1.029-1.024v1.024l-1.03 1.023h0l1.03 1.023v2.046l-1.03 2.046-1.03 1.023h-2.059v1.023l-1.03 2.046-2.06 4.092h0l-1.029 3.07v6.138l1.029 1.023 1.03 1.023h0v1.023l1.03 1.023h1.029l-1.029 3.069v2.047l1.029 2.046v1.023h-2.059l1.03 3.069 1.029 3.069h1.03l2.06-2.046 3.089 1.023-2.06 3.069-2.059 2.047 1.029 1.023 1.03 1.023-2.059 5.115h1.029l1.03 2.046 1.03 1.023h4.119l2.059 1.023 1.03 1.023 4.119 1.023 2.06-4.092h2.059l1.03-2.046v-1.023h1.03v-2.046l2.059-2.047 1.03-1.023 3.089-5.115 3.09-5.115h2.059l2.06-1.023h1.029l1.03 1.023 1.03 1.023 1.03-2.046 3.089-3.07 2.059-3.069-5.148-1.023-6.179 1.023-1.03-1.023v-1.023h-4.119v-1.023l-2.059-7.161v-1.023h1.03v-1.023l1.029-1.023 3.09-1.023 3.089 2.046-1.03 2.046v2.046l2.06-1.023 1.029 1.023v2.046h1.03l1.03-1.023 1.03-2.046 2.059 1.023h1.03l1.03-1.023h4.119l-1.03-1.023-1.03-1.023 2.06-4.092v-3.069h-1.03l-3.089-2.046-4.119-2.047-1.03-1.023h-1.03v-3.069h-4.119v-1.023l-1.029-3.069h-1.03l-1.03-1.023zM49.794 332.728l-.516-3.038-2.79 1.013-3.514-1.013-1.653-2.025-1.033-1.013-.827 1.013.31 1.012.516 1.013 1.861 2.025 1.653 2.026h.62l.93-2.026h1.137l.724 3.039-.31 3.038h-2.378l-2.377 2.025.207 2.026.31 1.012-1.033 1.013h-1.344l.207-1.013-.413-1.012h-.827l-1.034 1.012-.413 1.013 1.24 3.038 2.067 2.026 2.067-1.013 1.343-3.038h.93l.827-1.013 1.344-2.025 2.273-1.013-.31 2.026-.413 2.025h1.653l.517-1.013.516-1.012.62-1.013 1.24-1.013-1.033-5.063zM4.451 294.656l2.695-3.944-2.09-5.269-2.032-1.15-.228-1.38 4.701.239 4.92 1.001 3.306 2.796-.593-4.061 2.617 3.05.329 1.395 3.071 2.806 1.477 3.83-1.194 3.119-.541 5.888 1.926.53 1.422-.204.425 1.77 1.887.415 2.505 3.347-3.04.041-1.106 1.863-4.285-3.591-.986-2.464-2.353-.223-4.847-1.904-3.282-1.042-4.278.128z"/><path d="M5.183 301.189l-2.344-1.864L2 295.492l2.799-1.464zm315.375-134.577l-6.156-5.121-5.131-4.098h-4.104l-1.026-1.024-1.026 1.024-2.052 1.024-8.208-1.024h-7.183l-3.078 4.098-3.078 4.097-1.026 3.073h2.052l1.026 1.025-1.026 3.073-1.026 3.073 1.026 2.049v1.024l-1.026 1.024-1.026 1.025-1.026-1.025-2.052-2.049h-1.026l-1.026 1.025-1.026-1.025v-1.024h-1.026l-2.052 1.024-1.026-2.048-2.052 2.048-1.026-1.024v-3.073l-7.183-5.122-7.182-2.049v4.098l2.052 4.097v5.122l-2.052 3.073v2.049l1.026 2.049-3.078 1.024h-2.052l-3.079 4.098-1.026 4.097 1.026 1.025h2.052l1.026 1.024h2.053v-1.024l1.026-2.049h4.104l1.026-1.024h1.026l1.026 2.048 1.026 2.049-4.104 4.098-5.13 4.097-1.026 3.073-1.026 2.049-6.157 2.049h-2.052l-2.052 1.024-3.078 5.122v3.073l-4.104 1.025-2.053 3.073 2.053 2.048 1.026 2.049h0v2.049l1.026 3.074-1.026 1.024v2.049l3.078-2.049 2.052-2.049h2.052v-1.025l4.104 2.048 3.078 1.025 4.105-1.025h3.078v1.025l2.052-1.025-1.026-3.073 2.052-5.122 6.156 2.049h2.053l2.052 2.049-1.026 2.049h0l3.078 2.049 2.052-1.025 2.052 3.073 2.052 2.049 2.052-1.024h4.105v1.024h2.052l1.026-1.024h1.026l1.026 1.024h0l2.052-1.024 3.078-1.025 6.156 6.147 10.261 1.024v-1.024l2.052-1.025 1.026-2.049 1.026-3.073h2.052l1.026-2.049-1.026-1.024v-1.024l2.052-4.098 2.053-4.097 4.104-4.098 4.104-4.097 1.026-6.147 1.026-1.024 2.052-1.024h0l1.026-1.025h1.026l2.052-1.024h2.052v1.024l1.026 2.049 2.053-1.024 2.052-1.025 2.052-1.024h0v-1.024l3.078-1.025 2.052-1.024h3.078l2.052 1.024h0l3.079-3.073 3.078-1.024v-1.024l2.052-2.049h3.078l4.104-1.024h4.104l1.027-2.049 1.026-1.025 4.767-2.855 4.467-2.266-1.026-3.073-2.052-3.073 1.026-4.098h1.026l.958-1.275-1.984-.774h-2.053l-1.026 1.025-2.053 1.024-2.052 1.024-2.052 1.025-2.052 1.024h-1.026l-1.026-1.024-1.026 2.049v1.024l-7.182 2.049-6.157 1.024-1.026-1.024-1.026-1.025-30.781-18.438z"/><path d="M234.008 210.708l-5.115-1.026-2.047 2.053-4.092 3.079-2.046-1.027-2.046 1.027v2.052l1.023 1.027h3.069l-1.023 1.026-1.023 1.026 1.023 2.053-2.046 2.053-1.023 2.053-1.023 3.079v3.079l-2.046 1.026H211.5v1.027l-2.046-1.027h-1.023l-3.069 2.053-2.046 1.026 3.069 4.106 3.069 4.105-1.023 1.027h0l-2.046 1.026-2.046 1.026-4.092-2.053-1.023 1.027-1.023 2.052-1.023 1.027-1.023 1.026 1.023 1.026 1.023 1.027 1.023 2.053h3.069l2.046 2.052 1.023-1.026h1.023l1.023 1.026 2.046 1.027v1.026h0l1.023-1.026h2.046v1.026L211.5 261l1.023 1.026h1.023v4.105l1.023 1.027-1.023 1.026-1.023 1.026 3.07 1.027-1.023 3.079v2.053h1.023v1.026h-1.023l1.023 3.079 2.046 1.026 1.023-3.079 1.023-4.105h2.046l1.023-1.026 1.023-4.106 2.046-3.079h2.046l1.023 1.026h2.047l2.046-1.026 2.046-6.158 4.092-2.053 2.046 2.053 2.047 1.026h2.046l1.023 1.026v1.027l1.023 1.026 2.046 1.027 1.023-2.053 2.046-1.027 1.023-3.079 1.023-1.026-2.046-2.053v-3.079l5.115-3.079 3.069-4.106-4.092-3.079-4.092-4.105v-1.026h-3.069l-4.092 1.026-3.07-1.026-4.092-2.053v1.026h-2.046l-2.046 2.053-3.069 2.053v-2.053l1.023-1.026-1.023-3.08v-2.052h0l-1.023-2.053-2.047-2.053 2.047-3.079 4.092-1.026v-3.079l3.069-5.132-2.046-2.053-.671-1.346zm-76.304 62.022l-2.054 2.06h-2.053l-3.081-6.179-2.053-4.119-1.027 1.03-1.026 1.03-3.081-2.06-1.027-3.089h-2.053l-1.026 1.03-1.027 2.059-1.027 1.03 1.027 1.03h0v2.059l-2.054 1.03 1.027 3.089v5.149l-1.027 1.03-2.053 1.03 2.053 3.089 3.08 1.03 1.027 2.059 1.027 1.03h2.053l1.027 1.03 1.027 1.029v1.03l3.08 2.06 2.053 1.029h1.027v2.06l3.08-1.03h2.054l2.053 1.03 1.027 1.03 3.08-2.06 3.08-4.119v-2.059l-1.026-2.06 1.026-4.119-1.026-4.119-4.107-2.06-3.08-3.089z"/><path d="M135.286 258.107l-1.034 1.023h-2.068l-1.034-1.023-1.034-2.046h-3.101l-2.067-1.024-4.549 3.07-3.619 4.092 1.034 6.138-1.654 1.023-1.964 1.023.827 1.023 1.034 1.024-.517 2.046-.31 1.023 1.86 1.023 2.171 1.023 1.138 2.046 1.033 2.046h1.551l-.207 1.023 1.344 1.023 4.962-2.046 5.17-2.046 2.067-1.023 1.034-1.023v-5.115l-1.034-3.07 2.068-1.023v-2.046h0l-1.034-1.023 1.034-1.023 1.034-2.046 1.033-1.023h0zM244.124 46.561v.512l-2.045 1.537-3.07-1.23-2.046-.718-1.023.82-2.046 1.127-1.023-1.639-1.023-.103-2.046-.307v2.05l-4.092 2.049-3.07 4.099v2.049l-1.023 5.123-1.023 4.098-3.069 1.025h-4.092l-6.138 5.123 4.092 5.123 4.092 5.123-1.023 3.074 1.023 3.074 3.069-1.025 1.023 1.025h1.023l1.023 1.024v-4.098l1.023-2.049v-4.098l2.046 4.098v1.025h-1.023v5.123h2.047l1.023 5.123h-1.023v1.024l1.023 1.025h1.023v5.123l2.046 3.074 3.069 4.098 3.069 5.123 2.046 4.098 10.231 3.074 6.138-1.024 5.116-2.05 1.023-1.024v-2.049l2.046-2.05 2.046-3.074h0l-1.023-2.049h0l-1.023-1.024 1.023-3.074 1.023-3.074h-2.046v-6.148h0l-1.023-1.024v1.024h0l-1.023-7.172v-11.27h0l-1.023-2.049h-1.023l1.023-1.025-1.023-1.025v-1.024h-2.046l-1.023-3.074-1.023-2.049-2.047-1.025-2.046 1.025-1.023-1.025h0l2.046-1.024 2.047-2.05-2.047-1.024h0l1.023-1.025-1.023-1.024-2.046-1.025h1.023l1.023-1.025-1.023-1.024v-1.025l2.046 2.05 3.07 1.024-1.023-3.074-1.023-4.098v1.024h-3.07v1.025l-1.023-1.025h0V50.66l-1.023-2.049v-1.025l-1.023 1.025v1.024h-2.046l-1.023-2.971v-.103zm-108.665 74.001l-2.052 1.018 1.026 1.019 1.026 1.018h2.052l1.025 1.018h-1.025l-1.026 1.019v1.018h-1.026v4.075l1.026 2.037h2.052l3.077 1.018 2.052 4.074-2.052 3.056-3.077 2.037-4.104-2.037-1.026-3.056.855-3.392-1.88-1.701-1.026 1.019-1.026-1.019-1.026-1.018-1.026-1.018-1.025 1.018h-1.026v-2.037h-1.231l-.719 1.018-1.539 1.019h.513l-1.231 2.037-1.846-1.019-1.744 1.019h-1.847l1.026 3.056.821 2.037 1.025 2.037.924 2.037-.719 4.074 1.538 3.055h1.539l2.052-1.018 1.436 1.018 1.026 2.038 2.052-1.019h3.077v1.019l2.052 1.018 2.052-1.018 2.052-1.019v1.019h0l1.025 1.018 1.026 1.019v4.074h4.103l1.026 1.018v1.019l2.052 3.055v2.037l1.026 2.037 2.052 3.056h3.077l2.052 1.018 1.026-1.018 1.025-1.019h2.052l1.026-1.018h-1.026v-1.019l1.026-1.018v-3.056l3.078-2.037 3.077-1.018 2.052-2.037v-1.019l1.026-1.018h3.077l2.052-1.019-1.026-1.018h0l-1.026-4.074-1.025-1.019h-2.052l-2.051-2.037-2.052-2.037h-1.026v1.019l1.026 2.037h-2.052l-1.025-1.019h-7.181l-1.026-1.018-2.052 2.037-3.077 1.018-2.052-3.055h-3.077l-2.052-1.019-1.026-1.018h1.026l1.026-2.037 1.026-2.037 2.051-5.093 3.078-4.074v-3.055l-2.052-3.056v-3.056h-7.181l-5.129-1.018z"/><path d="M190.926 177.89h-1.023l-2.046-1.025v-2.05l-1.023-1.025h-1.023v-4.099l1.023-2.049 1.023-3.075 1.023-3.074-3.069-3.074-2.047-2.05h-2.046v1.025l-3.069 1.024-4.092 1.025-1.023-1.025-1.023-2.049h-2.047l-1.023 1.025v1.024l-2.046 2.05-3.069 1.025-3.069 2.049v3.075l-1.023 1.024v1.025h1.023l-1.023 1.025h-2.047l-1.023 1.025-1.023 1.024-2.046-1.024h-3.069l-1.023 3.074v2.05h1.023v1.024h1.023l1.023 1.025v6.149h3.069l4.092 1.025v6.148l1.023-1.024 3.07 1.024v-3.074l1.023-3.074 1.023 1.024-1.023 2.05v4.099l3.069 2.05 1.023-1.025h1.023l3.069 3.074v5.124l4.093 5.124 4.092-1.025v-1.024l1.023-1.025 3.069 1.025 3.069 1.024 1.023-1.024 1.023-1.025v2.05h1.023l1.023 1.024v3.075l4.093 1.024v1.025h0l1.023 1.025 2.046 1.025 1.023 2.049 1.023 2.05 7.162 5.124h1.023l1.023-1.025 2.046 1.025h1.023l1.023-1.025 1.023-1.025 2.046 1.025 1.023 2.05 2.046-2.05-1.023-2.05 1.023-1.024 1.023-1.025h-3.069l-1.023-1.025v-2.05l2.046-1.024 2.046 1.024 4.093-3.074 2.046-2.049-1.023-4.099-2.046-1.025v-3.075h-6.139l-3.069-4.099-2.046-3.074-2.047 1.025h-3.069v-2.05l-2.046-1.025h-1.023l-1.023-2.049v-1.025l-1.023-1.024-1.023-1.025h-1.023v-1.025l-2.046 1.025h-3.07v-2.05l-1.023-1.025-1.023-1.024-1.023-1.025-1.023-1.025h-1.023v-1.025l-1.023-2.049z"/><path d="M192.523 207.17l-1.027-1.019h-1.027v-2.039l-1.027 1.019-1.028 1.02-3.081-1.02-3.082-1.019-1.027 1.019v1.02l-4.109 1.019-1.027 2.039v1.02l-7.19 3.058-6.163 4.078 7.19 4.078 2.054-1.019 1.028-1.02 1.027 2.039 1.027 2.039 2.054 1.02 2.055 1.019-1.027 2.039-1.028 1.02h3.082l2.054 3.058 4.109 2.039h4.109l2.054-2.039 1.027-1.019 3.082 3.058v2.04h2.054l4.109 1.019 2.055-1.019 3.081-2.04h1.027l2.055 1.02v-1.019h4.109l2.054-1.019V229.6l1.027-3.058 1.027-2.04-1.027-2.039-2.054-1.019-1.027 1.019-1.028 1.02h-1.027l-2.054-1.02-1.027 1.02h-1.028l-7.19-5.098-1.027-2.039-1.027-2.039-2.055-1.019-1.027-1.02h0v-1.019l-4.109-1.02v-3.058zm-74.704-67.966l-.814-2.046-1.016-3.069-2.236 3.069-2.338 2.046h-3.151l-1.626 2.046.712 1.023.508 1.023-1.524 3.07-1.423-1.023.406-1.023.305-1.023h-.61l-.203 1.023h-1.017l-.813-1.023-1.83 1.023h-1.93v1.023h.407l-.102 1.023-1.016 3.069-2.338 2.046-2.541 1.023.203 1.023.102 1.023-2.541 3.069-3.354 4.093h-.102l.102 1.023.813 1.023 1.016 1.023-.406 1.023-.102 1.023h.915l1.321 2.046-1.219 3.069-.814 1.023h1.525l.813 1.023h1.727l1.83 5.115v2.047l.508 1.023H98.1l1.423 2.046 5.184-4.092.61-3.07v-2.046l.914-1.023.915-1.023-.508-1.023h-.102l1.423-1.023 1.626-1.023-.203-2.046 1.829-2.046.509-2.047 3.049-1.023.203-1.023.102-1.023h1.219l.915-1.023-1.016-3.069-.712-4.092 5.082-2.046-1.524-3.069.712-4.092-.914-2.047-1.017-2.046zm230.431-33.419v-2.05h-2.053v2.05l1.026 1.025-1.026 4.101 3.08-3.075v-1.026l-1.027-1.025zm23.613-22.554l-3.08-1.025h-3.08v2.05h-1.027v2.05l-2.053-1.024h-3.08v2.05l1.026 1.025h-1.026v1.025h0l-1.027 1.025-3.08 2.05-2.053 2.051h0l-1.027-1.025v-1.025l-1.026-1.025-2.054 1.025-2.053 2.05-1.027 3.076v3.075h2.054v1.026h0l1.026-1.026 1.027-1.025v1.025l-1.027 2.05 2.054 2.051 1.026-1.025h0l-1.026 1.025-1.027 4.101 1.027 1.025 1.026 2.05h-2.053l-1.027-1.024v1.025l-1.026 1.025h-1.027v2.05l1.027 2.05h2.053l1.027 2.051v2.05h2.053v-1.025h1.026l1.027 2.05 1.027 2.051 1.026 1.026v-1.026h0v-1.025l1.027-1.025v2.05l2.053 3.076h0v-2.05h0l1.027 1.025h2.053l-1.027-3.076-1.026-3.075v-5.126l1.026-5.126 1.027-4.1 2.053-4.102h1.027l1.027-2.05 1.026-2.05 1.027-2.051h0l1.026 1.025 2.054-1.025v-1.025l-1.027-1.025h1.027l2.053 1.025 1.027-1.025v-1.025h-1.027l-1.027-1.026 3.08 1.026v-2.052h2.054l-1.027-3.075-2.053-2.05v-1.026l-1.026-1.025h-3.08 0zm23.612-22.555l-2.053 2.05h0v1.026h1.027v1.025l1.026 1.025h-2.053l-2.053 1.025h1.026l1.027 1.026h0v1.025l1.026 1.025h0l-2.053-1.025-3.08-1.025-1.026 1.025 1.026 2.05h-4.106l1.026 1.025v1.026h-1.026l-1.027-1.025v2.05l1.027 2.05-1.027-1.024-2.053-2.051-2.053 1.025v2.05h0V75.03l-2.054-1.025-2.053 1.025-1.027 1.026-1.026-1.026h0l2.053 3.076 4.107 1.025v1.025h-6.16l-2.054 1.025v1.026h3.08l2.054 2.05 1.026 2.05 1.027-1.025h0v3.076l2.053 1.025h0l1.027-1.025v1.025l1.026-1.025 2.054-1.025-1.027-2.05h0V83.23h0l1.027 3.075h2.053l1.027-1.025-1.027-2.05-1.027-1.025V81.18h0l2.054 1.025 1.026 2.05h0v1.025l1.027-2.05 1.027-2.05-1.027-1.026V79.13h1.027v-1.025h1.026v5.126l1.027-1.025h0l1.026-1.026 2.054-1.025 2.053-3.075-1.027-1.025v-1.026h1.027v2.05l2.053 1.026h0l1.027-1.025 1.027-2.05h0l1.026 3.075 1.027-1.025v-2.05h1.026v2.05l2.054-1.025V75.03l1.026 1.025 1.027-1.025h0v-1.026l-1.027-1.025h2.054l1.026-1.025-1.026 1.025 2.053-1.025 3.08-1.025h0v1.025l1.027-1.025h1.026l3.08-1.025h17.453l10.266-1.025 3.08-2.05 2.054-3.076 2.053-2.05-1.027-3.076-5.133-2.05-6.16 2.05v1.025l-1.026 1.025h-1.027v-1.025h-13.346l-3.08-3.076-2.053-1.025-1.027 2.05-3.08 1.026h1.027V57.6h-2.054l-2.053 1.026-2.053-1.026h-3.08l-2.054 1.026h-2.053v1.025h-3.08v2.05l-1.026 1.025-1.027-1.025-1.026-1.025-1.027 1.025-1.026 1.025-2.054 1.025h0v-1.025l-1.026-2.05h0zm-137.57 66.638h-1.026l-1.026 1.025h-3.08l-3.08 1.026-2.054-1.026-1.026-1.025-3.08 1.025h-4.107l-4.106 3.076-1.027 4.1-1.026 4.101h-1.027l-1.027 1.026 1.027-1.026h0l-1.027-1.025-1.026-1.025v1.025h-1.027l-2.053-1.025-1.027-3.075-2.053-3.076-2.054-1.025-1.026 1.025v-1.025l1.026-1.025h2.054L223 124.239l-3.08-4.101-2.053 1.025-2.053 1.025-1.027 8.202h1.027l2.053 1.025-2.053 3.076-3.08 3.075h0l-1.027-1.025h-1.027v1.025l-2.053-3.075-2.053-4.101-2.054 2.05-2.053 1.025-1.027-1.025-1.026-1.025-1.027 3.076-1.026 3.075-1.027 2.05-2.053 2.051 1.026 4.1 2.054 3.077-2.054 2.05-2.053 2.05v1.026h0l-1.027 3.075-2.053 3.076h0l-1.026-1.025-1.027 1.025-1.027 1.025-1.026 3.076-1.027 3.075-1.026 2.05v4.101h1.026l1.027 1.025v2.05l2.053 1.026h1.027l1.026 2.05v1.026h1.027l1.026 1.025 1.027 1.025 1.027 1.025 1.026 1.025v2.05h3.08l2.053-1.024v1.025h1.027l1.027 1.025 1.026 1.025v1.025l1.027 2.05h1.026l2.054 1.026v2.05h3.08l2.053-1.025 2.053 3.076 3.08 4.1h6.16v3.076l2.054 1.025 1.026 4.101 5.133 1.025 1.027 2.05 2.053 2.051 2.054-1.025h2.053l6.16-2.05 1.026-2.051 1.027-3.076 5.133-4.1 4.107-4.101-1.027-2.05-1.027-2.051h-1.026l-1.027 1.025h-4.106l-1.027 2.05v1.026h-2.053l-1.027-1.025h-2.053l-1.027-1.026 1.027-4.1 3.08-4.101h2.053l3.08-1.025-1.027-2.05v-2.051l2.054-3.076v-5.126l-2.054-4.1v-4.101l7.187 2.05 7.186 5.126v3.076l1.027 1.025 2.053-2.05 1.027 2.05 2.053-1.025h1.027v1.025l1.026 1.025 1.027-1.025h1.027l2.053 2.05 1.027 1.025 1.026-1.025 1.027-1.025v-1.025l-1.027-2.05 1.027-3.076 1.026-3.075-1.026-1.026h-2.053l1.027-3.075 3.08-4.1 3.08-4.102-2.054-2.05-2.053-1.025h-2.054l-2.053 1.025v1.025h-2.053v-1.025l-1.027-1.025-1.026-2.05-3.08-6.152-4.107-6.151v-3.076l-5.133 4.101 1.026-2.05-1.026-1.026-1.027-1.025-1.026 1.025 1.026-1.025 2.054-1.025-4.107-8.201h0zm184.693-9.705v-1.026h-2.046l-5.115 2.051v3.077h0l4.092 1.026 3.069-1.026v-4.102h0zm13.3 25.64v-4.103l1.023-3.077v-2.051l-1.023-1.026-1.023 3.077-1.023 5.128-3.07 3.077-5.115 1.025-1.023 1.026h-1.023l-1.023 2.051-1.023 1.026-1.023 1.025-1.023 1.026v1.025l1.023 1.026v1.025l-1.023 2.052 1.023 4.102v4.102l-3.069 3.077-2.046 2.051-1.023 3.077-1.023 2.051-1.023 2.052v4.102l-1.023 2.051-1.023 3.077h3.069l1.023 1.026 1.023 1.025 2.046-1.025h2.046l6.138 4.102 3.07 6.154v1.025l-1.024 1.026 1.023 3.076v3.077h-2.046l-3.07 2.051-1.022 3.077 4.092 4.103 3.07 2.05h-2.047l-2.046-1.025-2.046 1.026h-1.023v-3.077l-1.023-2.051v-1.026l1.023-2.051v-2.05l1.023-1.026 1.023-1.026h-1.023v-1.026l1.023-1.025v-4.102l-1.023-2.052v-4.102h-11.254l-2.046 3.077-1.023 2.051v3.077l-2.046 7.179-2.046 2.051-3.07 1.026-1.023 3.076-2.046 2.052-3.069 1.025-3.07 2.052-2.045-1.026-1.023 1.026-2.047 3.076h-3.069v-1.025l-1.023-1.026-4.092-1.025-3.07-2.051-2.045-1.026-1.023-2.051-1.023-3.077v-3.077h0l4.092 2.051 5.115 2.052-1.023 1.025h-2.046v1.026l3.069 2.051h4.092v-2.051l1.023-2.051h1.023l2.046-1.026 1.023-1.026h1.023v-2.05l4.093-2.052 4.092-2.051 1.023-3.077v-2.051l3.07-2.052 2.045-3.076-2.046-4.103-1.023-6.153 3.07-5.128 2.045-5.128 2.047-6.154 1.023-1.025 1.023-1.026 3.069-6.153-1.023-5.128v-5.128l4.092-4.103 6.138-10.255v-3.077l-2.046-3.077-5.115-2.051-2.046-1.026-2.046-1.025h-1.023l1.023-1.026h-1.023v-1.025l-5.116 6.153-5.114 7.179-8.185 6.153-6.138 3.077h1.023l-1.023 2.051h-1.023l-1.023 2.052h2.046l1.023 1.025-2.046 3.077-2.046 4.102v2.052l-1.023 2.05-1.023-1.025h-1.023l-2.046 2.051-1.023 3.077v1.026h0l1.023-1.026h1.023l1.023 2.052 1.023 2.05h1.023v2.052l-1.023 1.026v5.127l2.046 2.052v1.025l-6.139 7.18h-2.046l1.023-1.026v-1.026l-1.023-1.025-1.023-1.026h0l-1.023-7.179-1.186.116-.173-.69-.46-.692 1.168-.032-.42-1.12-.975-.659.573-1.701-2.619-3.427-4.092-3.076-2.047 2.05-1.022 1.026-1.024 1.026 2.046 3.077 1.024 1.025v2.052l-3.07 4.102h-1.022l-1.023 4.102 2.046 3.077 1.023 3.077-4.092 2.051-5.116 3.077-1.023 1.026-1.023 2.05h-4.092l-4.092 1.026h-3.07l-2.046 2.052v1.025l-3.069 1.026-2.047 2.051-1.021 1.026-2.047-1.026h-3.069l1.023 3.077v2.05l1.023 2.05v1.026l-2.046 3.077-1.023 3.076h-2.046l-1.023 2.052 1.023 2.051 3.07 1.025-1.024 2.052 1.023 2.051h3.07l1.022 1.026 2.047-1.026h2.046v1.026l1.023 1.025 1.023-1.025h1.023l3.069 1.025 3.07 2.051 1.022 1.026 2.046 1.025-1.023 1.026-2.046 1.026 2.046 3.076 3.07 3.077h0l2.046-1.025 2.046-1.026 3.07 1.026h1.022l1.023-1.026h2.046v1.026l1.023 1.025h1.023l2.047 2.051-1.023 1.026-1.024 2.051v3.077l1.024 2.051 2.046 2.051v7.18l5.115 1.025 5.115-1.025 2.046 3.076 1.024 3.077 2.046 2.051 2.046 1.026 5.115 1.025 4.092 3.077 5.116 3.077 1.023 4.103 2.046 2.05h7.161l2.046 1.026 2.047 1.026 6.138-2.052 4.092-2.05h1.023v3.076l3.07 3.077h4.092l2.046 3.076 2.046 3.077h4.092l2.046 2.051 2.047 4.103 5.115-4.103 3.069-4.102 1.023-2.051v-1.026l1.023-1.025 1.023-2.051-2.046-1.026-1.023-1.026v-2.05l1.023-1.026h2.046l4.092-6.154 1.023-6.153-1.023-3.077-2.046 1.025-2.046-1.025-1.023-2.052h-2.046l-1.023-3.076h1.023l1.023-2.052v-7.179h0l-3.07-1.025-1.023-3.077v-7.18l1.023-4.101-1.023-5.128-1.023-3.077-1.023-1.026v-1.025l1.713-1.25.94-1.634-1.63-1.219v-4.102l4.093-2.05 2.046-5.129 2.046-12.307-1.023-1.025-1.023-1.026v-1.026l-1.023-1.025-2.046 2.051h-3.07l-2.046-2.051-3.069-2.051h0l-1.023-3.077-1.023-2.051v-3.077l2.046-1.025h0v-1.026h1.024l4.092-3.077 2.046-2.05 2.046 1.025h2.046l1.023-5.128v-5.128l-2.046-2.051-2.047-2.052v-4.102h3.07l2.046-2.051v-3.077l-2.046-2.051-2.047-2.051-1.023-2.052-1.023-2.05h-3.069l-3.07 2.05h2.047l1.023 2.052v2.05l-4.092-1.025-1.023-3.077-4.092 1.026-1.023 4.102 1.023 4.103 2.046 3.076h2.046l2.046 2.052-1.023 5.128-1.023-2.052-1.023-2.05-6.138-3.078-5.115-4.102 1.023-1.026 2.046-4.102-1.023-2.051 3.069-3.077 2.046-3.077h-.001zm11.253 2.05l1.023-1.025v-2.051l-1.023-1.026-5.115 2.051 4.092 2.052h1.023zm-10.23-15.383l-4.092-1.026 1.023 3.077h1.023l1.023-2.051h1.023zm5.115-5.128l1.023 1.025 1.023-1.025-2.046-1.026-1.023 1.026h1.023zM904.74 85.82h-1.026l-1.025 3.076 4.1 2.05 2.051-1.025 2.05-2.05-1.024-1.025-1.026-2.051h-2.05l-2.05 1.025zm28.706-65.108l-3.076 2.05v1.436l-1.025.616-1.025.82-1.025 4.409 1.025 4.511 1.025 2.358 2.05 1.23 1.026.513h0l2.05-5.64 3.076-1.64 1.025-1.025v-1.23l2.05-4.41-1.024-4.409-2.05.308-4.102.103zm69.717 21.327l-1.026 1.64-1.025 1.128-1.025 1.025 1.025.206 1.025-.719 2.05.513 2.051.82v2.256h2.051l2.05 1.026h-2.05v2.05h-1.025l-1.025-1.025-1.025 1.025h-3.076v-2.05l-2.051-1.026-4.1-2.973-1.026-.205h-1.025v2.153l-1.025-.307v-.41l-1.026-1.333-2.05-1.025-2.05.615-1.026 1.025 3.076.513-1.025.922-2.05 2.051-1.026-2.05-1.025-1.128-1.025.922-2.051 1.23-1.025-1.025-1.025-.205-3.076 1.23-3.076 2.051-1.025-1.025h-1.026l-2.05 1.025-2.05 1.026-1.026-1.026-2.05-1.025-3.076 1.025-3.076 2.051h-5.126l-1.025 1.025-2.05 1.026h0v-1.026h1.024V53.01h-1.025l-2.05 1.025-1.026 1.026-2.05 1.025h-2.05l-1.026 1.025-3.076 1.026-3.075 1.025h-1.026v2.05l-1.025-1.025h-1.025l-4.101 5.126-1.025 1.026-2.05 2.05h-2.051l1.025 1.026v1.025h-2.05l-2.051 1.025h0l-1.025 1.026-2.051 1.025-3.076 2.05-3.075 1.026 1.025 1.025 1.025 1.025 1.025 2.051v3.076h2.05l1.026-1.025 5.126 3.076 1.026 5.127-1.026 2.05v2.051h-3.075l-2.051-2.05-3.076 1.025-3.075 1.025-2.051-2.05-5.126-2.051-1.025 1.025v5.126l-2.05 2.051h-2.051l-2.051 1.025-1.025 1.026-2.05 2.05-3.077 1.026-2.05-1.026v1.026h0l-1.025 1.025-1.025 1.025h-1.026l-1.025 2.05v1.026l-1.025 1.025-1.025 1.026h0l1.025 2.05 1.025 1.026h1.025l1.026 1.025h0l1.025 2.05h1.025l2.05 1.026v2.05l2.051 3.077 1.025 2.05-2.05 1.026-1.026 1.025-7.176 8.202-5.126 7.178 1.025 1.025 1.025 1.025-1.025 2.051v2.05l6.151 4.102 6.152 2.05v1.026l-1.025 1.025 2.05 4.101 2.05 3.076h3.076l2.05 1.026h0l1.026 4.1h3.076l2.05-1.024h3.076l3.076 1.025h4.1l3.077-2.05 3.075 1.025h5.126l2.051-2.051 3.076-2.05-1.025-2.052 2.05-2.05 1.025-1.026 2.05-1.025h3.077v-1.025l4.1-2.05h1.026l2.05-1.026 2.05-2.05 1.026-1.026h0l2.05-1.025h2.051l1.025 1.025h0l3.076-1.025 3.076-1.026h2.05l1.026 1.026h5.126l1.025 5.126 1.025 6.152 4.101-1.025h4.101l4.101 1.025 3.076 1.025h1.025l1.025-1.025h1.025l1.026-1.025v-3.076l1.025-1.025 2.05-1.026 10.253-12.304 1.025 1.026 2.05 2.05 2.05-1.025h2.051v1.025l1.026 1.025 1.025-3.075v-4.102l2.05-6.152 2.05-6.152h-2.05v-1.025l-1.025-1.025h1.025v-1.026l2.05 2.051h0l5.127-3.076 5.126-3.076-1.025-1.025v-4.101l-3.076-1.026-3.075-1.025v-2.05l-3.076 1.025-3.076-1.026-5.126-3.076-6.152-3.076-1.025 3.076-4.1 1.026-2.051-2.051-1.026-1.025-1.025 3.076v1.025h-2.05v2.05l-1.025-1.025.883-1.025h-3.959l.34 1.063.686 2.013-2.051 1.025-1.025 1.026 1.025-2.051 1.025-1.025v-1.026l-1.025-2.05h1.025l6.152-3.076-1.025-1.026v-1.025h4.1l4.101-3.076 2.051-6.152-1.025-6.152-2.05-6.152h-3.077l-4.1-1.025-1.026-3.076 1.026-2.05h-1.026l-1.025-1.026 2.05-1.025 1.026 1.025v-4.1l2.05 3.076 1.025 3.076h2.051l1.025-1.026h1.025l2.051 4.102 1.025-1.026 1.025-1.025 2.05-5.126 2.051-3.076 2.051-1.026 3.076-1.025 3.076 2.05 2.05 1.026 4.101-1.025 3.076-2.05 1.025-1.026 1.025-1.025 3.076 1.025 3.076-1.025v-2.051l-1.026-1.026v-1.025l2.051 2.05 1.025 1.026 1.025-2.05-2.05-2.052h1.024l1.026-1.025v-1.025h-2.05l-2.051 1.025-1.025-1.025-1.026-1.026v1.026h-1.025l1.025-2.051V53.01l-1.025-1.025-1.025-1.026-2.05-1.025h-5.127l2.05-1.025 2.051-1.025 2.05-1.743 1.026-2.255v-.719l-2.05.308-2.051-.719 2.05-.718 3.076-1.846-2.05-1.333-1.025-1.025v-5.843l-1.026.307-1.025.82-1.025.206-1.025.102-3.076.82-2.05.72-5.127.102h-3.075l-2.05 2.562-1.026 2.563-1.025.82v.206l1.025.82v.82l-2.051-.615-1.025-1.025-1.025.82zm-157.621 417.02h-3.078l-2.052-1.019h-1.026l-3.078-3.055-1.026-1.019h-2.052l-2.053 1.019-2.052-1.019h-2.052l-1.026 2.037-1.026 1.019h-1.026l-4.104 2.037-1.026 1.019-1.026 3.055-1.026 2.037v4.074l1.026 1.018 2.052 2.038v2.037l1.026 2.037 1.026 1.018 1.026 1.019h0l2.052 1.018 2.052-1.018h1.026l6.156-3.056h2.052l1.026-2.037v-2.036l2.053-1.019 2.052-2.037h2.052l2.052-4.074 3.078-2.037h4.104l3.079-2.037-1.026-2.037h0l-1.026-2.038-2.053 1.019h-4.104l-2.052 2.037h0zm-312.315-28.964h-2.057l-5.143 2.05-3.086-1.025-1.029 1.025h-2.057v-1.024h-1.029l-1.028 1.025h-3.086l-1.028 2.05-1.029 3.076-2.057 1.025-2.058 1.026-5.143 7.176-7.2 4.101-7.2-1.025-6.172-2.05-1.028-2.051-2.057-1.025-3.086 1.025-3.086 1.025v5.126h-4.114l-4.115-1.025v7.177l1.029 1.025h1.028v4.101l2.058 1.026v2.05h-2.058l-3.085 2.051 1.028 1.025h1.029v1.026l1.028 2.05 4.115-1.025h4.114v-2.052l1.029-2.05 5.143 1.025 2.057-1.025 2.057-1.026h4.114v-1.025l1.029-1.025h1.029v1.025h1.028v1.025h1.029l2.057-1.025v2.051l1.029 2.05h4.115l5.142 1.026 1.029 3.075 1.029 4.101 4.114 1.026 4.114 1.025h1.029l1.028-1.025 5.143 2.05h2.058l3.086 1.025 1.029 1.026 1.028 1.025 7.2-4.101 1.029-3.076 1.028-3.076h-1.029l-1.028-2.05v-3.075l-1.028-1.025 2.057-5.126 3.086-4.101h1.029l1.028-1.026 2.057-2.05 1.029-2.051v-2.05l-1.029-1.025v-2.052l1.029-1.025v-5.126h1.028v-2.051l-1.028-1.025h-4.114l-5.144-4.101zm437.457 36.262h0l-2.056 1.023h-2.055v2.046l-1.028 4.092-1.028 4.092 1.028 1.024h1.028v-4.093l1.028-4.092 2.055-2.046 1.028-1.023v-1.023zm6.167 7.162v-2.046l-1.028 1.023-1.028 1.023h2.056zm7.195-27.623l-1.028-2.046h-1.028l-1.028 3.07-1.027 2.045h-4.112v1.023l1.028 1.023-1.028 2.047-1.027 2.046v2.045l-1.028 2.046v2.047l-1.028 2.046 1.028 1.023 1.028-5.116 1.027-1.023 1.028-1.023v-2.046l2.056-2.046 1.028-3.07 2.055-2.045 2.056-2.047v.001zm7.194-17.392h0l-1.028 1.023-2.055 5.115v1.023l-1.028 1.023 2.056 1.023 2.055-7.161v-2.046zm8.222-15.346l-1.027-3.07v3.07l-1.028 2.046v1.023h0l2.055-3.07zm1.028-14.323v2.046l1.028-1.023v-1.023h-1.028zm1.028-15.346h0l-1.028-2.046 1.028 1.023v1.023zm-1.028-12.277l1.028 2.046v1.023l1.028-1.023-1.028-3.069-1.028 1.023zm4.111-19.438v-2.046h-1.027l-1.028 2.046h2.055zm-3.083 6.138l-2.056 4.092 1.028 1.024 2.056-2.047 1.027-3.069v-3.07l-1.027-2.045-1.028-1.023-1.028 1.023 1.028 2.046v3.07zm-85.307 51.154l-5.14-6.139-4.11-5.115-3.084-4.092v1.023h-1.028v-2.046l-2.055-1.024-2.056-2.046-1.028-5.115-2.055-6.138h0-1.028l-2.056-2.047-1.028-2.046h1.028l1.028 1.023v1.023h1.028l-4.111-5.115-3.084-4.092v-2.046l-3.083-2.047-1.028-1.023v2.047h-1.028l-1.028 1.023 2.056 1.023 3.084 2.046v1.023h1.027v2.046h-1.027v1.023h0l1.027 1.023-1.027 3.07-1.028-1.024h-1.028l-2.056 1.023v2.046l1.028 2.047 1.028 1.023 2.056 7.161 2.055 7.162 4.111 3.069 5.14 4.092 1.027 3.07v4.091l2.056 2.047 1.027 2.046 6.167 18.415v1.023l4.111 3.07 2.056 4.091 1.028 3.07v4.092l2.056 2.046 1.027 2.046 2.056 8.185 4.111 6.138 1.028-1.023v-2.046l-1.028-5.115 1.028-4.092 1.028 1.023h0l3.083-1.023 2.056 1.023 2.055 1.023 1.028 2.046 1.028 1.023-2.056-5.115-2.055-4.093-1.028 1.023-2.056-1.023-2.056-1.023-2.055-2.046-4.111-3.07-3.084-5.114-1.028-6.139v-5.115l-1.027-2.046v-2.046l1.027-1.023 1.028-2.047 5.14-1.023 5.138 2.046 2.056 1.024 1.027 1.023-2.055-2.047-3.084-2.046-2.055-2.046-1.028-2.046-6.167-6.139h0zm-112.285-29.084l2.057-2.051 1.029-3.077h-2.058l-1.028-1.025-2.058-1.026-1.028 1.026-2.057 1.025h-1.028l-1.029-1.025-3.086 2.051-4.114-1.025-2.057 2.051h-3.086l-1.029 1.025v1.026l-2.057 1.025-2.057 2.052v1.025l-1.029 1.026-3.086-1.026-3.086-1.025v1.025h-4.114l-1.029 2.051v1.026l-2.057-1.026h-1.028l-2.058 1.026-3.086 2.051h-2.057l-2.057-1.025h-3.086l-3.086 1.025-5.143-1.025-2.057-2.052-2.057-2.051-5.143-1.025h-6.172l-1.029-1.026-2.057-1.025h-4.114l-2.058-1.026-2.057-1.026-2.057-1.025-4.114 1.025-4.115 2.052v4.102h1.029v2.051l1.029 1.026 2.057 1.025 2.057 1.026-1.029 1.026h-1.028v2.051l2.057 2.051h1.029v-1.026l2.057-1.025 3.086-1.026 2.057 3.077 1.029 3.077h1.028l2.057-1.026 2.058 5.128-2.058 5.128 1.029 1.026h1.029l3.085 2.051-1.028 1.025-1.029 1.026v3.077l-1.028 2.051h0l3.086 3.077 2.057 3.076h5.143l2.057-1.025 2.057-1.026h1.029l1.029-1.025 2.057 1.025 2.057 1.026h0l1.029-1.026 3.086 2.052 3.085 1.025v-1.025h6.172l1.029 1.025v1.026h1.028l1.029 1.025h1.028v2.051h1.029l2.057 2.052 1.029 1.025 1.028 4.102 5.143 6.154h1.029v1.026l1.028 1.025v2.051l2.058 2.052 2.057 3.076 1.029 1.026 1.028 3.077h1.029l1.028 1.025v2.051l3.086 5.128 4.114-1.025 4.115-1.026h0l1.028 1.026h2.058v1.025h1.028l1.029-1.025 1.028 1.025v-1.025h1.029v-1.026l4.114 3.077 7.201 1.025h1.028l1.029-2.051 1.028-3.077 1.029-1.025h0v-3.077l-1.029-3.077v-7.179l-2.057-1.026h-1.029v-1.025l-1.028-1.026-1.029 1.026h-1.028v-1.026l-.504-.503-.525-.522-1.028 1.025v-6.153l1.028-3.077 1.029-2.051v-1.026l-1.029-2.051 3.086-2.051 3.086-2.052v-2.051l1.028-2.051 1.029-1.026 2.057-1.025 2.057-1.026v-4.102l-1.028-2.051h0l5.143-1.026h4.114l1.029-1.025v-2.051l-1.029-2.052v-4.102l-1.028-3.077-3.086-1.025h-1.029l-1.028 1.025-3.086 1.026h-2.057l-1.029 2.051-2.057 2.051-4.115 2.052-2.057 1.025-1.028 1.026h-4.115l-2.057-3.077-2.057-2.051h-4.114l-3.086-1.026v-4.102l3.086-2.051v-6.154l1.028-1.025 1.029-1.026 2.057-2.051 2.057-2.051v-2.052z"/><path d="M658.142 390.564h-2.053l-2.052-2.053v-2.053l-2.053 1.026h-5.132l-1.026-1.027-1.027-1.026-1.026 2.053-3.079 2.053h-5.132l-1.026-1.027h-1.026v-1.026l-1.027-1.027-2.053 2.054-1.026 2.053h-1.026l-1.026-1.027-3.08 2.053-2.052 2.053 1.026 5.132h2.052v2.053l2.053 1.027 1.027 2.053h-2.053l-1.027 2.053-1.026 8.212 1.026 8.211 3.08-11.291 2.052-4.106 3.079-1.026-1.026 13.344-2.053 14.371-1.026 1.026-.325.499-.701-.499-.563-1.026-.464-2.053-1.026 2.053-1.026 2.053h3.079v2.053l-1.026 2.053h-2.054l-2.052 3.079-3.079 4.106-12.317 5.133-1.026 3.079-1.026 3.08-7.185 4.106-4.105 1.026-1.027 1.026-3.079 3.08h-4.105l-1.027 1.026h-1.026v-4.106l-.992-.992-2.087-2.087-1.026-2.053v-2.054l-7.185-6.158-1.026 1.026h-1.026l-1.027-2.053-1.026-3.08-5.132-3.079-4.105-3.079-1.026-3.08-1.027-2.053-4.105 4.106-4.106 3.08-1.026-1.027h-1.026v5.132l-1.027 1.027v2.053l1.027 1.026v2.053l1.026 1.027 2.053 1.026 7.184 4.106 6.158 3.08h1.027l1.026 1.026 4.105 1.027 3.08 1.026v6.159l6.158 7.185 9.237 2.053 8.211-2.053 2.052-1.026h1.027l4.105 1.026 4.106 1.027h3.079l3.079 2.053 2.053 2.053h2.052l2.053 1.026v-4.106l2.053-3.079h2.053l2.053-2.053-2.053-1.027-3.079-2.053 2.052-2.053 2.052-2.051h0l-1.026-3.079 1.026-2.053h4.106l3.079 1.026h0l2.053-2.053 3.079-2.053h3.079l2.053 1.026 1.026-1.026 2.053-2.053 2.053-2.053 2.052-1.027 2.053-1.026.863-1.726 1.19-2.38h1.026l2.053 1.026 1.026-2.053 2.053-1.026 5.132-1.026 5.131-4.106-2.052-6.159-2.053-4.106 2.053-2.053 6.158-5.133 5.132-5.132 2.052-1.026 2.053-1.027h2.053l2.053-1.026v-7.186l-5.132-4.106-3.079-2.053v-4.106h0l-1.026-2.053h0v-1.026h0l-1.027-2.053v-1.026h0v-2.053l-1.026-1.027-1.026-1.026h-1.027l1.027-1.027v-2.053l2.052-2.053h1.027l1.026-1.026-5.132-1.027-5.132 6.159-5.131 2.053-4.106-1.027-2.053 1.027zm-173.19 16.471l-2.059-2.051-2.06 1.025h-3.089l-3.089-3.076-3.09-3.075-1.029 1.025v5.126l-1.03 3.076-1.03 4.101h3.09l2.059 2.05-1.03 1.025-1.029 1.026 1.029 2.05-1.029 2.051h-1.03l-2.06 2.05v2.051l1.03 3.076-1.03 2.05 1.03 2.051 1.03 3.075-4.119 3.076-4.119 2.051-2.06 2.05-2.059 1.026v3.075l-1.03 1.025v1.026l1.03 3.075 3.089 1.026 2.06-1.026 2.059-1.025 4.119 1.025h4.119v-5.126l3.089-1.025 3.09-1.025 1.029-3.076 2.06-2.05 1.029-1.026h2.06l2.06-4.101v-1.025l2.059-1.025 2.06-2.051v-1.025l-1.03-1.025-1.03-1.025v-1.025h0l-1.029-1.026 2.059-5.126-2.059-6.151-1.03-6.152-3.089-1.025z"/><path d="M463.515 380.19h-7.162l-1.023 1.021-1.023-1.021h-1.023l-2.046 2.043-1.023 1.021h-1.023l-1.023-1.021-2.046 1.021h-2.046l-1.023 2.042v1.021l1.023 3.064v3.063l1.023 1.022-1.023 2.042-1.023 2.042 1.023 2.043v2.042l-1.023 1.021-1.023 2.043 2.046 2.042.208 2.146 1.838.918h1.023v2.042l1.023 1.021 1.023 1.021 1.023 1.021v3.064l1.023 2.042 2.046 1.021 1.023 1.021-1.023 1.022-1.023 2.042 1.023 1.021v1.021l-1.023 1.021 1.023 2.043v3.063l2.047 2.043 1.023 1.021h1.023l1.023-1.021 1.023 1.021 1.023 1.021h2.046v3.063l4.092-2.042 4.092-3.064-1.023-3.063-1.023-2.043 1.023-2.042-1.023-3.064v-2.042l2.046-2.042h1.023l1.024-2.043-1.024-2.042 1.024-1.021 1.023-1.021-2.047-2.043h-3.069l1.023-4.084 1.023-3.064v-5.105l1.023-1.022 3.07-3.063 3.069-1.021v-1.021l-1.023-9.191-1.023-1.021-1.023-1.021 1.023-2.042h1.023l-1.023-1.021v-1.022h-4.093l-3.069 2.043-2.046-1.021-2.046-1.022-1.023 1.021h0z"/><path d="M391.934 353.604l-2.05-1.027-2.049-2.054-1.025 2.054v1.027l-1.024 2.053v2.053l-2.05 1.027-1.024 2.054 1.024 2.053v2.054h-4.098l-2.049 1.026-2.05 2.054h-2.049v2.053l1.025 1.027-2.05 2.053-1.024 5.134 1.024 2.054 1.025 3.08v1.026l-1.025 1.027-1.024 2.054-1.025 3.08h4.099l1.024-1.027 1.025-1.026 1.024 1.026h3.074l-2.049 2.054-2.049 1.026 3.074 6.161 4.098 7.187 2.049-2.053 1.025-1.027 1.024 1.026v1.027l2.05-1.027h2.049l3.074 1.027h3.074l1.024-1.027h0l7.173-3.08 6.148-2.053v1.026l1.024 3.081 1.025 1.026v2.054h1.025l1.024 1.026-1.024 1.027h0l4.098 6.161 3.074-3.081 5.123-3.08 1.025 2.054h1.024v-2.054h8.197l1.025-1.027 3.074-2.053 1.024-2.054 1.025-1.026v-2.054l-1.025-2.053 1.025-2.054 1.024-2.053-1.024-1.027v-3.08l-1.025-3.08v-1.027l1.025-2.054h-5.123l-1.025-1.026-1.024 3.08-2.05 1.027-.406-.408-.618-.619h0l-1.025-1.027 1.025-1.026 1.024-1.027v-4.107l1.025-1.027-1.025-2.053h-3.073l-1.025 1.027v1.026l-1.025-1.026h-6.147l-1.025-4.108-7.172-1.026-5.123-8.214-7.132-4.01.957-1.062z"/><path d="M433.439 407.549h-4.105v2.063h-1.027l-1.026-2.063-5.132 3.095-3.079 3.094-4.105-6.189h0l1.026-1.031-1.026-1.031h-1.026v-2.063l-1.027-1.032-1.026-3.094v-1.032l-6.158 2.063-7.185 3.095h0l-1.026 1.031h-3.079l-3.079-1.031h-2.053l-2.053 1.031v-1.031l-1.026-1.032-1.027 1.032-2.052 2.063 7.184 37.133 4.106-1.031v-2.063h2.052v-1.032l1.027-1.031 2.052 5.157 2.053 4.126 4.106 1.031 2.052 1.032h4.106v-1.032h3.079l1.026-1.031 4.105 3.094 2.053 4.126h3.079v-4.126l-2.053-2.063-2.052-2.063 2.052-1.031 2.053 1.031 1.026-1.031 2.053-1.031h7.185l1.026-1.032 1.026-1.031h2.053l1.027-2.063 1.026-2.063 1.026 1.031 1.027 1.032h3.079l1.026 1.031 2.053-2.063-1.027-2.063 1.027-2.063 3.079-1.032v-3.094l-1.026-2.063 1.026-1.031v-1.032l-1.026-1.031h0l1.026-2.063 1.026-1.032-1.026-1.031-2.053-1.032-1.026-2.063v-3.094l-1.027-1.031-1.026-1.032-1.026-1.031v-2.063h-1.026l-1.844-.927-.209-2.168-2.053-2.063-3.079 2.063-1.026 1.032h-4.106zm-336.75-28.427l-2.138-3.089-3.054-5.149-1.629-1.03-.713-1.029-1.833 1.029-2.85 2.06-1.426-1.03-1.527 1.03h.611l-.204 2.06h-3.46l1.527 1.029-.509 3.09h.509l.203 1.029.102 1.03 1.426 1.03h1.323l-.305 1.029-.102 1.03h3.461l.509 2.06-.305 2.059-2.24 1.03-2.545 1.03-1.73 3.089-1.018 2.06h-3.665l-.407 1.029-1.12-1.029h-2.24l-2.138 1.029-1.222 1.03-1.527 2.06 2.036 5.148 2.647 4.119.713 7.208 2.24 6.179h2.444l2.647-1.03h3.461l2.952-2.059v-9.268l1.018-9.268 5.803-5.149 2.545-1.029-.407-1.03h-1.425l.407-3.089.407-3.09-1.527-5.148 4.276-2.06z"/><path d="M73.549 340.233l.616-1.031-.308-1.03h-1.334l-1.231 1.03-.205-1.03.103-1.031h-1.026l-.719-1.031-1.744-2.062-2.051-1.03-.513 2.061-.513 1.031-1.847-1.031-1.539-1.03-1.334 2.061-.82 3.093.923 3.092-.616 2.062.821 1.031-1.539 2.061-1.641 1.031-.41-1.031h-.513l.102 4.123 1.642 2.062 1.333 3.093h1.437l1.334 1.03-.411 1.031h-2.36l-1.743 1.031.41 1.031h1.129l-.821 1.03-1.231 2.062h2.36l2.667 1.031.513 1.031-.205 1.03 2.872 2.062h2.257l1.949 2.062 1.129 1.03h.513l-.821 1.031h-1.026l2.565 2.062.41 3.092 2.257-1.03 1.539-1.031.411 1.031.82 1.03h1.847l.513-3.092-1.539-1.031h3.488l.205-2.062h-.615l1.538-1.03 1.437 1.03 2.872-2.061 1.847-1.031-.821-5.154-2.359-5.154-1.436-2.062-.616-2.062.719-5.154-1.231-2.061-1.54-2.062-.821-2.062-.923-3.092z"/><path d="M62.81 365.336l-.507-1.041-2.637-1.04h-5.172l-3.955 3.121 2.738 4.163 1.42 5.202h.912l.913 1.041 2.333-1.041 2.231-1.04.811 1.04.609 1.041 1.115-1.041h1.014l.812 1.041h1.217l1.521-1.041 1.217-3.121h1.014l.811-1.041h-.507l-1.115-1.04-1.927-2.081h-2.231l-2.84-2.082z"/><path d="M58.303 353.051l-1.669-2.06h-1.669l.104 1.03-3.754 2.06-1.669-2.06-1.668-3.089-3.546 2.059-3.442 2.06 3.65 7.208 5.737 6.179 4.067-3.09h2.921l1.251-2.059.835-1.03h-1.148l-.417-1.03 1.773-1.029h2.398l.417-1.03-1.355-1.03h-1.461l-1.355-3.089z"/><path d="M63.473 316.473l-4.593-2.055-3.165-1.028.51-1.028 1.327-1.027-.408-1.028.204-1.028-1.123-1.028h-1.429v1.028l-.306 1.028h-.102l-.918-1.028-.51-1.028-1.43-1.028h-1.327l-.612-1.028-.715-1.027v6.166l.306 5.14-.51-1.028h-.51l-.103-2.056v-1.028l-1.327 1.028-1.429 1.028v-1.028h.408l-.715-1.028-1.94 1.028-1.836 1.028h-2.244l-1.327 1.027h-1.633l-2.756-2.055-1.734-3.084-.307 2.056.205 1.028-1.735-1.028h-1.43l1.224 2.056 1.021 4.11-.715 2.056.204 2.056.715 1.028h1.225l.102 3.083-.102 2.056 2.143 6.167.613 7.194.204 8.223h3.368l1.327 2.055.817 1.028h.715l3.266-2.056 3.47-2.055 1.633 3.083 1.633 2.056 3.675-2.056-.102-1.028h1.633l-.102-4.11h.51l.408 1.027 1.633-1.028 1.531-2.055-.817-1.028.613-2.056-.919-3.083.817-3.083 1.327-2.056 1.53 1.028L64.698 336l.51-1.027.51-2.056.511-1.028-.102-2.055h.612l.51-1.028h-1.734l-2.347-4.111.51-1.028.408-1.028-.408-1.028-.204-1.028h.715l.919-1.027-.409-2.056-1.225-1.028h0zm-14.188 13.362l.51 3.083 2.859 3.084 1.02 5.139-1.225 1.027-.612 1.028-.51 1.028-.51 1.028h-1.634l.408-2.056.306-2.056-2.245 1.028-1.327 2.056-.817 1.028h-.918l-1.327 3.083-2.042 1.028-2.041-2.056-1.225-3.083.408-1.028 1.02-1.028h.817l.409 1.028-.204 1.028h1.326l1.021-1.028-.306-1.028-.204-2.056 2.347-2.055h2.348l.306-3.084-.715-3.083h-1.122l-.918 2.056h-.612l-1.633-2.056-1.838-2.056-.51-1.027-.306-1.028.816-1.028 1.021 1.028 1.633 2.055 3.47 1.028 2.756-1.027z"/><path d="M104.209 292.666h-.821l-.72 1.025-4.42 1.025-4.213-1.025-2.364-2.051-3.289 3.076-4.317-1.025-.72 1.025v2.051h.822l.617 1.025h-4.419l-.309 1.025.309 1.025-.823 2.051-.72 1.025-1.85 2.051-2.672 1.025-3.289-2.051-3.187-3.075h-4.007l-1.85-1.026-2.569 2.051-2.775 2.051 1.746 1.025.925 1.025 2.981 1.025 2.261 1.025-.206 1.026h-.616l-.823 2.05-.616-1.025h-1.028l-1.85-1.025h-1.644l-.205 1.025.411 1.025-1.336 1.025-.514 1.026 3.186 1.025 4.625 2.05 1.234 1.026.411 2.05-.925 1.025h-.72l.205 1.026.411 1.025-.411 1.025-.513 1.025 2.363 4.101h1.747l-.514 1.025h-.616l.102 2.051-.514 1.025 2.056 1.025 1.747 2.051 3.7-1.025 2.775-1.025 4.419 3.075 3.187 7.177 1.85 1.025 1.542-1.025.514 1.025h.411l1.13-1.025.822-2.05h5.242l.206-1.026.205-1.025 2.878-2.05 1.439-3.076H97.22l-1.746-1.025.616-1.026-.616-1.025-.72-1.025h-1.645l.514-1.025v-1.025h-1.747l1.028-6.152-1.542-3.076-1.027-2.05.514-1.026h1.027l1.234-1.025 1.336-1.025 3.391 1.025 3.7-2.05-.205-3.076-.514-2.051-.617-1.025h-.411l2.878-3.076 2.775-2.05-1.029-5.126-.205-4.101zm93.231 3.646l-2.04-3.08-1.02 2.053-2.04 3.08h-2.041l-1.02 1.027h0l-3.06-2.053-2.041-2.054h-2.04l-2.04-1.027h-1.021l-2.04 1.027h-3.06l-2.041 5.134-2.04 3.08v1.027l1.02 2.053v2.054l1.02 1.027 2.041 1.026v3.08h1.02v3.081h0l1.02 1.026 1.02 4.107 1.02 3.08 8.161-1.026 3.06-3.08 4.081-2.054 1.02-1.027h2.04l2.041-2.053 2.04-3.08 2.041-1.027 2.04-1.027 2.04-4.107 3.061-1.026-2.041-2.054h-1.02v-3.08l-1.02-1.027-2.04-2.053h-2.041l-2.04 1.026-1.02-1.026z"/><path d="M211.814 269.59h0l-2.037 1.026-3.056-2.051h-4.074v1.025h-3.055l-2.037 1.026h-5.093v1.025h0l-5.092 1.026v1.025l1.018 1.026-1.018 3.077h-4.074l-1.019-1.026h-1.018l-1.019 1.026v2.051l4.074 1.025 1.019 2.052 2.037 2.051h5.092l1.019 2.051v3.077l2.037 3.077 2.037 3.076 2.037 2.052 2.037-1.026h2.037l2.037 2.051 1.019 1.026v3.077h1.018l2.037 2.051 2.037 3.077h1.019v1.025h0l-1.019 1.026v2.051l2.037 2.051 2.037-4.102 1.019-2.051v-1.026h2.037l1.018-1.025 1.019-2.052v-2.051l-1.019-1.025 1.019-1.026v-1.026l1.018 1.026 4.074-1.026 4.074-2.051-1.018-2.051-2.037-2.051h-1.019l-1.018-2.051h3.055l3.056-2.052-2.037-1.025-1.019 1.025v-4.102h1.019l-2.037-1.026-2.037 1.026 1.018 1.026v1.025l-2.037 1.026-1.018-1.026h-1.019V286h-3.055l-2.037-2.052-1.019-1.025h-1.018l2.037-1.026h1.018l-1.018-1.025-2.037-1.026-1.019-3.077h1.019v-1.025h-1.019v-2.051l1.019-3.077-3.056-1.026z"/><path d="M209.284 259.015v-1.012l-2.069-1.012-1.035-1.013h-1.034l-1.034 1.013-.966-.946-1.103-1.08h-3.104l-1.034-2.025-1.035-1.013-1.034-1.013-3.103-2.025-3.104-1.013-1.034 1.013-1.034 1.013-1.035-1.013h-1.034l-1.035 2.025 1.035 2.026h-1.035l-1.034 2.025 1.034 1.013-1.034 2.025h3.103l1.035 1.013 5.172 1.013 1.034 3.038v1.013l1.035 1.012v2.026l1.034 3.038h2.069l2.069-1.013h3.103v-1.012h4.138l3.103 2.025 2.069-1.013h0l1.035-1.012 1.034-1.013-1.034-1.013v-4.05h-1.035l-1.034-1.013 1.034-2.026v-1.013h-2.069l-1.034 1.013h0z"/><path d="M187.879 259.267l-1.034-1.047h-3.103l-1.035 1.047-2.069 1.047h0v3.141l1.035 2.094h-3.104l-2.069 1.047v1.047h-1.034v1.047h1.034l-1.034 4.188 2.069 3.141 3.103 2.094 1.035-1.047h1.034l1.034 1.047h4.138l1.035-3.141-1.035-1.047v-1.047l5.172-1.047h0v-1.047h3.104l-1.035-3.141v-2.094l-1.034-1.047v-1.047l-1.035-3.141-5.172-1.047z"/><path d="M192.423 231.386l-2.058 2.034h-4.116l-4.116-2.034v1.017h-1.029l-2.058 1.017-1.028 2.034-2.058 1.016-2.058-1.016-2.058-1.017-2.058 2.033-1.029 1.017-1.029-1.017h-1.029v2.034l-1.029 1.017v1.017h-5.144l-3.087 1.016-3.087 2.034-4.116 1.017v2.033l-1.029 1.016h1.029l2.058 1.017v2.034l-1.029 1.017 2.058 2.033 1.029 1.017h2.058l2.058 1.017 2.058 7.117 2.058 4.067 2.058-1.017 2.058-1.016v1.016h1.029l2.058-1.016 3.086-1.017 1.029 1.017-1.029 1.016 1.029 1.017h2.058v-1.017l2.058-1.016h3.087l-1.029-2.034v-3.05h0l2.058-1.017 1.029-1.017 1.029-2.033-1.029-1.017 1.029-2.034h1.029l-1.029-2.033 1.029-2.034h1.029l1.028 1.017 1.029-1.017 1.029-1.017 3.087 1.017 3.087 2.034 1.029-1.017 1.029-1.017 1.029-2.033 1.029-1.017 4.115 2.033 2.058-1.016 2.058-1.017h0l1.029-1.017-3.087-4.067-3.087-4.067-4.115-1.017h-2.058v-2.032l-3.087-3.051z"/><path d="M155.884 224.303h-3.34l1.012-4.078-1.012-3.059h0l-4.049 1.02-3.036-3.059v-3.058l-2.985 5.044-2.02 6.136.994 1.001 1.026 2.035 3.046 3.068-2.086 6.165 3.037 4.078 4.048 5.097 4.049-1.019 3.036-2.039 3.036-1.02h5.061v-1.019l1.012-1.02v-2.039l-2.024-1.019-2.025-1.02v-3.058h-1.012l-3.036-3.059-1.012-2.039-1.012-2.039z"/><path d="M127.77 199.337l-1.04 1.013h-1.008l-2.146 1.046-2.94 1.068-1.677 4.094-3.967 4.157 1.833 1.01.898-.038 1.951 4.15 3.118 1.067 1.076 5.108-1.04 1.045-.813 2.059 2.178 3.104h1.529l-.041 1.045-.015 2.078v1.031l1.063.974h-1.008l-1.595 2.12.103 2.064h1.437l2.053-1.032 1.026-1.031 1.048 1.031h1.004l2.11-1.092 6.101.061v-1.032l2.053 1.031h2.053l2.115-6.236-2.049-2.059-1.04-1.045-1.04-2.059-1.008-1.012 2.048-6.208 3.027-5.103v-3.093l-1.027-2.063h-1.026l-4.106-2.063-2.005 2.031-1.074-1-6.11-2.104-1.009-2.058-1.04-2.059zm6.242 13.755l.748 1.405c.291.376.776.543 1.236.425l-.325 1.013.812 2.581-.422 1.699-2.601.229-1.691-1.144-1.69.915-.814-1.34-.65 1.47-2.406.131-1.105-1.405-1.496 1.111-.488-2.45 1.756-.555.553-2.19 1.853 2.059 1.366-1.307 2.86 1.274.39-2.09 1.236-.654.878-1.177z"/><path d="M117.622 212.124l-.894.037-1.827-1.002-7.874 2.047-1.022-1.024-.921-1.023-.92 1.023h-1.738l-1.534-3.069-2.147-1.023-.921 1.023-.716 1.023h-1.636l-1.737 1.024.613 4.092 1.023 5.116-1.637 2.045-1.022 1.023 2.351 4.092 4.091 1.024 4.09 1.023.716-1.023.511-1.024 1.738-1.023h2.045l.409-1.023h.307l2.352 1.023 2.454 1.023.511 1.024h.818l1.125-1.024.307-1.023h2.658l1.432-1.023 1.271-.038.81-2.042 1.036-1.037-1.072-5.068-3.106-1.058zm-24.533 55.247l1.663-1.019.208-2.039-.935-2.039-.936-1.02-6.236-3.058-4.885-2.039-1.143-1.02-.935-2.039h-3.742l-1.975-2.039-3.741 6.117 1.351 1.019 2.078 2.04.52 2.039.728 2.039.104 1.019 3.43 1.02 3.326 2.039h-.417l-.728 4.078v3.058l1.351 1.02 1.351-1.02 1.247 4.078 2.495 4.078.728-1.019.935-1.02 1.039-2.039 1.559-3.058h1.04l1.039-1.02-.208-2.039v-3.058h1.455l1.039-2.039h-1.455l-1.351-1.02zm599.234 95.318l-3.088-1.026-2.058 2.052 2.059 2.051-1.03 1.026h-1.029v3.077h-1.029v1.026l1.029 7.18h2.059v6.154h-1.03l-1.029-1.025-2.059 2.051-1.029 1.026-2.059-1.026h-1.029l-5.146 1.026v2.051l-1.03 1.026h1.03l1.029 1.026 1.029 1.026v3.077l1.03 2.051h0v1.026h0l1.029 2.051v4.103l3.088 2.052 5.146 4.103v7.18l-2.058 1.025h-2.059l-2.058 1.026-2.059 1.026-5.147 5.128-6.175 5.129-1.03 1.026-1.029 1.025 2.059 4.103 2.058 6.154-5.146 4.103-5.147 1.026-2.058 1.026-1.03 2.052-2.058-1.026h-1.03l-1.029 2.051-1.029 2.052-2.059 1.025-2.059 1.026-2.058 2.051-2.059 2.052-1.029 1.026-2.059-1.026h-3.089l-3.088 2.052-2.058 2.051-.921-.306-2.167-.72h-4.117l-1.03 2.052 1.03 3.077h0l-.718.714-1.341 1.337-2.059 2.052 3.088 2.051 2.059 1.026-2.059 2.052h-2.058l-2.059 3.077v4.103l2.059 2.051 4.117 4.103 7.205 1.026 7.205 1.025h1.029l1.03-1.025 1.029 1.025h2.059l2.058-1.025 3.088-2.052 7.206-2.051 7.205-2.052 2.059-4.103 7.205-6.154 5.146 1.026 4.117 2.051h4.118l6.176-1.026 5.146 3.077 7.205 1.026 2.059-3.077 3.088-3.077 3.088-2.052 2.059-2.051v-2.052h-1.03v-1.026l2.059-8.205 2.059-9.232 3.088-4.103 2.059-4.103-1.03-1.025-1.029-1.026v-2.052l-1.029-1.025-3.088 1.025-1.03-3.077 1.03-2.051 3.088-3.077v-1.026l1.029-1.026 4.117-2.051 5.147-3.078-2.059-3.077-3.088-3.077h0l1.029-2.052v-3.077l1.03-1.026 1.029-1.025-3.088-2.052h-1.029l-1.03-1.026 2.059-5.128-2.059-5.129-2.058 1.026h-1.03l-1.029-3.077-2.059-3.077-3.088 1.025-2.058 1.026v1.026h-1.03l-2.058-2.052v-2.051h1.029l1.029-1.026-2.058-1.026-2.059-1.025-1.029-1.026v-2.052h-1.03v-4.103l-3.088-4.102-1.029-4.103h-1.029l-1.029 1.025h0l-2.059-4.102v-6.155l-4.117 1.026-2.059-1.026zm199.287 96.757h-3.082l-2.054-1.026v-2.05l1.027-2.051-1.027-2.051-2.055-2.051-1.027-1.025h0l-4.109 2.05-2.054 3.077h-2.055v1.026l1.028 1.025 1.027 1.025v1.026l1.027 1.025h4.109l-2.055 6.153-4.109 2.05v4.102l-4.108 3.076-5.136 2.051-1.027-1.025-1.028-1.026-1.027 1.026-1.027 1.025v-2.051l-1.027-1.025-1.027 1.025-1.027-1.025h-1.027l-2.055 3.076-1.027 3.076v2.05l-2.055 2.051v11.28l-1.027 2.051 1.027 2.05-1.027 1.026-1.027 2.051 1.027 3.076-2.054 2.051h-8.218l-3.081 1.025-1.027 4.102-2.055 1.025-1.027 1.026 1.027 2.051 1.027 2.05 3.082 6.153 1.027 6.152 1.027 1.026v1.025l-1.027 7.178-3.082 1.025-1.027 2.051h1.027l1.028 1.026 1.027 2.051 1.027 2.05 1.027-2.05v-1.026l-1.027-1.025-1.027-1.026h5.136v-2.05l1.027-4.102 2.054-3.076-1.027-1.026 1.027-1.025h1.027v3.076l1.028-1.025 1.027-1.026 1.027-1.025v-1.026l1.027 3.077v2.051h1.027v-1.026h1.027l1.027 1.026 1.028-1.026h0l2.054 1.026 1.027 1.025h0v-2.051l1.027 1.025h0l2.055-1.025 2.054-2.051 6.164-6.152 4.108-7.178 1.027-1.026v-2.05h1.028v-4.102l1.027-3.076v-2.051l2.054-2.051 1.027-5.127 2.055-6.153 2.055-6.152 2.054-5.127 1.027-5.127 1.028-6.153v-5.127l1.027-4.101zm130.378-206.2l2.722-.906 2.427 1.51 5.308-.604-1.82-1.813-2.275.756-3.488-1.209.455-1.51-2.882 1.963-.447 1.813zm13.696-5.496l2.676.058.908-.59 2.732-.241-.227-.529-6.37.604.28.698zm-47.707-27.024h-2.057v12.297h1.029v-3.074l1.028-2.05v-2.05l1.029-1.024 1.029-2.05-2.058-2.05zm4.115-64.562l-1.028 1.025v3.075h-2.058l-1.029 1.024-1.028 1.025-3.087-1.025-4.115-1.024h-4.115l-4.115 1.024-1.028-6.148-1.029-5.124h-5.144l-1.029-1.025h-2.057l-3.087 1.025-3.086 1.024-1.029-1.024h-2.057l-2.058 1.024h0l-1.028 1.025-2.058 2.05-2.058 1.025h-1.028l-4.115 2.049v1.025h-3.087l-2.057 1.024-1.029 1.025-2.057 2.05 1.028 2.05 1.029 1.024 2.058 4.1v4.098l2.057 3.075 3.086 3.074v2.05l1.03 2.05v1.024l1.028 2.05 2.057 2.05 4.115 2.049v4.099l1.03 1.025h1.028v3.074l1.029 1.025 1.028 2.05h1.029l1.029-1.025v-1.025l1.028 1.025h2.058v-3.074h-3.086l-2.058-4.1v-2.05l-1.029-1.024-1.028-3.074 3.086-2.05 1.029-3.074h5.143l-2.057 2.05-1.029 4.098 2.058 3.075 2.057 3.074v2.05l1.029 2.05h2.058l1.028 3.074v2.05l1.029 1.024 1.029 1.025-1.029 2.05-2.058 2.05h0v3.074l-1.028 1.024-1.029 2.05v3.074l1.029 1.025-1.029 6.149v5.124l-1.029 1.024v1.025l-1.028 4.1v4.098l1.028 1.025 1.029 1.025v1.024l-1.029 1.025v6.149l-1.028 4.099-1.03 4.1-1.028 2.049-1.029 1.024v3.075l-2.057 1.025-2.058 1.024 2.058 1.025 2.057 3.074v6.15l-1.028 5.123 2.057 6.149 3.087 6.148 14.402 19.471 18.518 18.446 3.086 5.124 4.115 4.1 3.086 2.049h0l1.029-5.124v-5.124l1.029-1.024 1.028-3.075-1.028-9.223-2.058-2.05h-1.029v-2.05l-1.028-2.049h-1.029l-1.029-1.024 1.029-1.025 2.058 1.025h0l3.086-7.174 2.057-1.025h1.03v-1.024l-5.145-4.1-2.057-6.148v-5.125l3.086-5.123h1.029l1.029 1.024 2.057-4.099v-3.074l-3.086-2.05-3.086-2.05-3.087-7.173 1.029-7.173v-1.025l-1.029-1.025 1.029-2.05 1.029 1.025v3.075h2.057l1.029-3.075-5.144-4.099v-1.025l-1.028 1.025-1.03 1.025-3.085-3.074-2.058-3.075v-3.074l-1.029-3.075h-5.143l-1.03 1.025 1.03 1.025-2.058 1.025-2.058-1.025-3.086-9.223v-6.149l-1.029-1.025h1.03v-1.024h-1.03v-3.075l-1.028-1.024h-1.029l-1.029-5.124 2.058-4.1 1.029-1.024-1.03-1.025h3.087l2.058 1.025 1.028-3.075-2.057-1.024v-1.025l2.057-4.1 1.03-4.098 1.028 1.025 4.115 6.148v-7.173l1.029-5.124 3.086-6.149 4.115-2.05 5.144-2.05 4.115 2.05h3.086l-1.029-3.074-2.057-3.074 1.028-2.05 1.029-3.074v-5.124l1.029-1.025-1.029-2.05h-1.028l1.029-1.024h1.028l-1.028-1.025-1.029-1.025h1.029l1.028-3.074-1.028-1.025h-1.029l1.029-1.025 1.028-1.024v-3.075h-1.028v-2.05h1.028l1.03-2.049v-2.05l1.028-1.024-1.029-1.025v-1.025h-2.057l-2.058 1.025-2.058-2.05-1.028-1.024-10.288 12.297-2.058 1.025z"/><path d="M906.615 168.437h-1.023l-2.046 1.028h-3.07l-1.023-4.111h0l-2.046-1.028h-3.069v2.056l-2.046 1.027-1.023 3.084-1.023 2.055h-1.023l-2.046-1.027-1.023 1.027-1.023 1.028-3.07 1.028-4.092 1.028v2.055H874.9v2.056l1.023 2.056-1.023 2.055-1.023 2.056v3.083l2.046 1.028-2.046 3.084v5.139l2.046 2.055 2.046 1.028-1.023 2.056v1.027h1.023v2.056h-2.046l-1.023 3.084-1.023 2.055-1.023 1.028-2.046 1.028v1.027l-1.023 2.056-3.069-1.028-4.093-2.055-1.023 2.055-2.046 2.056h-2.046l-2.046 1.028 2.046 3.083-1.023 3.084-1.023 1.027-1.023-1.027-1.023 1.027-1.023 1.028-2.046 1.028H848.3l-1.023 3.083-1.023 4.112 1.023 9.25 3.069 2.056 2.046 2.055v1.028l-1.023 2.055 1.023 1.028v2.056l-1.023 2.056v4.111l5.116-1.028 4.092-1.028 6.138 4.111 3.069 6.167h-1.023v2.055l.516 1.036.508 1.02-3.07 1.027v4.112l3.07 1.027h4.092l4.092 2.056 3.069 3.083v3.084l3.07-1.028h1.023l2.046-2.056 2.046-2.055h2.046l3.069-1.028h0l-1.023-1.028h-1.023v-2.055h1.023v-4.111l3.069-1.028 3.07-1.028h3.069v1.028h2.046v-2.056l3.069-2.056 2.046 1.028 2.047 1.028 2.046-1.028h1.023v1.028h-1.023l-2.046 2.055-2.047 1.028 1.023 3.084h1.023l2.047-1.028 2.046-3.084 1.023-1.027h2.046l2.046-1.028h0v-3.083l1.023-2.056h0l3.069-1.028h2.047l1.023-1.028v-2.055h3.069l-1.023-1.028h1.023l1.023-1.028h0l-1.023-2.056-2.046-1.027-2.047 1.027-1.023 1.028v1.028l-1.023 1.028h-1.023v-4.111h-1.023l-1.023-1.028v-1.028l1.023-1.028h-1.023v-6.167l2.046-4.111 1.023-5.139-1.023-1.027v-4.111l1.023-2.055h0l-1.023-2.056-1.023-2.056 2.046-4.111 1.023-3.083h2.046l1.023-1.028 4.093-6.167h3.069l2.046 1.028 1.023-3.084v-2.055l2.046 2.056 1.023 2.055v4.111l1.023 1.028 1.023 1.028v1.028l1.023 1.027 1.023-1.027 1.023-1.028 1.023 2.056 1.023 3.083 2.046-10.278 2.047-11.306h-1.023l-1.023-2.055-1.023-1.028v-3.084h-1.023l-1.023-1.028v-4.111l-4.093-2.055-2.046-2.056-1.023-2.056v-1.027l-1.023-2.056v-2.056l-3.069-3.083-2.046-3.084v-4.111l-2.046-4.111-1.023-1.028-3.07 2.056-2.046 2.055h-5.115l-3.069-1.027-3.069 2.055h-4.093l-3.069-1.027h-2.046z"/><path d="M629.92 128.347h-2.054v3.078h-1.026l1.026 2.052 3.08 2.052 2.053-1.025 1.027-2.053-4.107-4.104zm106.77-13.337l-2.053-3.078-3.08-1.026 2.053 2.052 3.08 2.052h0zm-10.266-23.598v-4.104l-1.027-1.026-2.053 1.026 2.053 3.078v2.052l1.027-1.026zm25.666 10.26l1.027 4.104 1.026 1.026h2.054v-4.104l-4.107-1.026zm17.453 12.312l2.053-4.104v-1.026l-1.026-1.026-5.133-3.078h-5.134l-2.053 3.078v4.104l-1.027 2.052-1.026 1.026-1.027 1.026h2.054l2.053-1.026 2.053-1.026h3.08l5.133-1.026v1.026zm-7.187-38.988l1.027-1.026-5.133-1.026-4.107-1.026-1.026 1.026-2.054 1.026-4.106-2.052-3.08-1.026v1.026l1.027 1.026h-1.027l-1.027 1.026v1.026l1.027 2.052v1.026l1.027 1.026h0l-3.08-1.026-3.08-1.026-2.054-1.026h-1.026l-1.027-1.026V73.97l-1.027 1.026-1.026 2.052-1.027 2.052-1.026 1.026-1.027 1.026 1.027 1.026v3.078l-1.027 2.052h1.027l1.026 1.026v2.052l1.027 2.052 2.053 2.052 3.08 1.026 1.027 2.052 1.026 1.026h5.134v-6.156l1.026 1.026 1.027 1.026 1.026-1.026 1.027-1.026 4.106-3.078h4.107l1.027-1.026 1.026-1.026 1.027-1.026-2.054-1.026h-2.053l-4.106-3.078-2.054-4.104 3.08-3.078h0v1.026l6.16 8.208 3.08-4.104-1.027-4.104 1.027-1.026zm24.64-6.156h0l-1.027 1.026-3.08-1.026-3.08 1.026v1.026l-1.026 1.026-2.053-1.026v-1.026h-3.08l-2.053 1.026v2.052l-1.027 1.026-2.053-2.052v-1.026l-1.027 2.052 1.027 4.104 4.106 1.026 5.133 1.026 6.16-2.053 4.107-4.103v-2.052l-1.027-2.052zm67.758 36.936l-16.426 10.26-5.133 6.156-4.107 2.052-4.106-2.052-4.107-2.052h-5.133l-4.106-1.026v1.026l-1.027 1.026h-2.053l-1.027-1.026 1.027-2.052 2.053-1.026-2.053-2.052-3.08-2.052-4.107 1.026-3.08 1.026-4.106 8.207-4.107 7.182h-1.026v-2.052h0l-1.027-1.026 2.053-1.025 1.027-1.026-1.027-1.026v-2.053l2.054-1.025 1.026-2.053-2.053 1.026-5.133 3.078-1.027 1.026-1.026 1.026-1.027-2.052 3.08-3.078h1.026l3.08-2.052 3.08-1.026h0l-11.293 1.026-11.293 4.104h-5.133l-2.053 1.026 1.026 1.026 2.054 1.026-1.027 3.078-3.08 1.026-2.054 5.13 1.027 1.026 2.053-1.026v2.052l1.027 1.026 1.027 2.052v2.052l2.053 1.026v2.052h-2.053v2.052l-1.027-1.026-1.027-1.026h-1.026l-1.027 1.026h-2.053v6.156l-4.107-2.052-7.186-1.026-3.08 4.104-4.107 3.078-4.106-1.026-3.08-2.052-1.027-2.052 2.054-1.026h0l-2.054-1.026-1.026 9.234-1.027 11.286-1.027 1.026-1.026-1.026-1.027-1.026h0v1.026h-2.053l-1.027-1.026v-1.026h-3.08l-2.053-3.078-2.053-3.078h-1.027l-1.027-1.026 1.027-1.026 1.027-1.026-1.027-2.052-2.053-1.026h0l1.026 1.026v1.026l-1.026 1.026-2.054-2.052-1.026-2.052-5.133-3.078-2.054-1.026h3.08l2.054 2.052 2.053 2.052h3.08l2.053-2.052-1.026-3.078-2.054-2.052v-4.104l-1.026-2.052v-1.026l-2.054-2.052h-2.053l-6.16-5.13-2.053 1.026-2.054 1.026h-5.133l-3.08-2.052-4.106-1.026v1.026l-1.027 1.026-2.053 5.13 1.026 4.104v4.104l-2.053-1.026h-3.08v1.026h-2.053l-2.054 1.026-1.026 1.026-3.08-1.026-2.054-1.026h-6.158l-2.054-1.026v-2.052l2.054-2.052-1.027-1.026h-8.213l-2.053-1.026-1.027 1.026H648.4l-2.053-1.026h-2.053l-1.027 1.026-1.026 1.026-2.054 1.026-3.08 1.026v3.078l-2.053-2.052 1.026-2.052-1.026-3.078-2.053-2.052v3.078l-1.027 1.026h-3.08l-3.08-2.052-1.027 1.026-1.027 3.078-2.053 2.052 1.026 1.026h1.027v3.078l1.027 1.026-1.027 4.104 1.027 4.104 1.026 1.026v3.078l1.027 1.026 2.053 1.026 2.054 2.052 1.026 4.104v4.103l2.054 4.104 1.026 3.078v1.026l-4.106 3.078-4.107 3.078-1.027 3.078v2.052l-1.026 1.026-2.054 1.026v4.104l-2.053 3.078h-2.053l-3.08-1.026-3.08 1.026-2.053 2.052h-2.054l-2.053-1.026v1.026h-1.027l-1.026 2.052v1.026l1.026 4.104 2.054 3.078v14.364l-1.027 11.286-3.08 2.052-2.053 2.052 1.026 1.026 1.027 1.026v7.182l1.026 2.052v5.13l1.027 2.052 2.053 2.052 2.054 2.052-1.027 2.052-1.026 1.026-2.054 3.078v3.078l-2.053 3.078 2.053 4.103h2.054l1.026 1.026 1.027 1.026 4.106 1.026h7.187l1.026 2.052 1.027 3.078-1.027 1.026-2.053 3.078 3.08 1.026 3.08 3.078.999 6.988.027 5.324 2.054 2.052 2.053 3.078-1.027 2.052-2.053 2.052 1.027 5.13 3.08 3.078-2.054 5.13-2.053 6.156v3.078l-1.027 1.025-1.027 1.026v5.13l1.027 4.104h2.053l5.134-1.026 1.026-2.052 3.08 1.026h1.027v-1.026h6.16l1.026-1.026 2.053-2.052v1.026l1.027 2.052 2.053 1.026-1.026 3.078 5.133-5.13 4.106-6.156h2.056l1.026-2.052 1.027-3.078 2.053-1.026h2.054l3.08-3.078h4.105l3.08 1.026 2.053 2.052 2.053 1.026v2.052l1.027 1.026v2.052h10.266l1.027 2.052v2.052l1.027 2.053v3.077l1.026 2.053 1.027 1.025v1.026l1.026 2.052v6.156l2.054 4.104h0l1.026-1.026h1.027l1.026 4.104 3.08 4.104 4.107-2.052 4.106-1.026 2.054 1.026 2.053 1.026 2.054 1.026h4.106l2.053 1.026 1.027 1.026h6.16l5.133 1.026 2.053 2.052 2.054 2.052 5.133 1.026 3.08-1.026h3.08l2.053 1.026h2.054l3.08-2.052 2.053-1.026h1.026l2.054 1.026v-1.026l1.026-2.052h4.107v-1.025l3.08 1.026 3.08 1.026 1.026-1.026v-1.026l2.054-2.052 2.053-1.026v-1.026l1.027-1.026h3.08l2.053-2.052 1.027-5.13v-4.104l2.053-1.026 1.027-1.026v-2.052l-1.027-2.052-2.053-1.026-1.027-1.026h-2.053l1.026-2.052 2.054-1.026v-3.078l1.026-1.026 1.027-1.026-3.08-2.052-2.054-3.078h3.08l-1.026-4.104 1.026-3.078 1.027-6.156 1.027-2.052 2.053-2.052h2.053l5.133-2.052 5.134-2.052 1.026-1.026v-2.052l1.027-2.052 1.166.583.887.443h1.027l2.053-1.026h0l5.133-3.078 1.027-4.104v-1.026l1.026-1.026 2.054 2.053 1.026-1.026-1.026-3.078-2.053-2.053-1.027-4.103-1.027-5.13-2.053-3.078 1.026-4.104v-1.026l1.027-1.026v-1.026l1.027-1.026v-2.052l2.053-1.026 1.026-1.026v-6.156l1.027-6.156h4.107l5.133 2.052h2.053l1.027-1.026 1.027 1.026 1.026 1.026 2.054-3.078 2.053-2.052h1.027l1.026 1.026 1.027-1.026 1.026-1.025 1.027 1.025 2.053 2.053 1.027-3.078v-7.182l1.027-2.052v-2.052l-1.027-1.026 1.027-2.052v-1.026l-2.054-2.052-3.08-2.052-1.026-9.234 1.026-4.104 1.027-3.078h2.053l2.054-1.026 1.026-1.026 1.027-1.026 1.026 1.026 1.027-1.026 1.027-3.078-2.054-3.078 2.054-1.026h2.053l2.053-2.052 1.027-2.052 4.106 2.052 3.08 1.026 1.027-2.052v-1.026l2.053-1.026 1.027-1.026 1.027-2.052 2.053-3.078h1.026v-2.052h-1.026v-1.026l1.026-2.052-1.026-1.026-3.08-2.052v-5.13l2.053-3.078-2.053-1.026v-3.078l1.027-2.052 1.026-2.052-1.026-2.052v-2.052h3.08v-2.052l4.106-1.026 3.08-1.026 1.027-1.026 1.026-1.026 2.054 1.026h1.026l1.027-2.052 1.026-3.078 2.054-1.026v-2.052h0l-2.054-3.078-2.053-4.104 1.027-1.026v-1.026l-6.16-2.052-6.16-4.103v-2.053l1.026-2.052-1.026-1.026-1.027-1.026 5.133-7.182 7.187-8.207 1.026-1.026 2.054-1.026-1.027-2.052-2.053-3.078v-2.052l-2.054-1.026h-1.026l-1.027-2.052h0l-1.026-1.026h-1.027l-1.027-1.026-1.026-2.052h0l-1.027 2.052v2.052h-1.026v-1.026h-1.027v5.13l-1.027-2.052-2.053-2.052-3.08 1.026h-4.106l-1.027-3.078-2.053-4.104-11.293-3.078h0zm-100.61 43.091l2.053 1.026 2.053-1.026v-1.026l-1.027-1.026-2.053 1.026-1.027 1.026z"/><path d="M473.027 138.586l1.028 2.054h3.083v-6.162l-4.11 4.108h-.001zm24.663-34.917h1.027v1.027l1.028 1.027 1.027-4.108-1.027-1.027h0v1.027l-2.055 2.054zm6.166-77.33v-.925l-1.028-.72-3.083-1.334 2.055 1.643v1.438l2.056-.102zm17.469-23.517L518.242 2l-2.055.924 1.027 1.027h1.028l2.055.616 1.028-1.745zM626.14 93.4l1.027 1.026v1.027l2.056 1.027-1.028-3.08-1.028-1.028-1.027 1.027h0zm-66.795-8.216h3.083l2.055-3.081h-2.055l-1.027 1.027-1.028 1.026-1.027 1.027h0zm-1.027-51.452l1.027-2.978-2.055-2.054-3.083-1.027-1.027-.513-2.056 1.232v2.67l2.056.822 1.027.822v2.054l4.11-1.028zm22.607 1.54l-3.083-5.442-3.083 2.26-2.055 3.388-1.027 1.233-1.028.616 1.028-1.335 1.027-1.13v-.513l-1.027.513-2.056.822h0l-1.027-.206 4.11-2.362 1.028-3.902-3.083-1.13-4.11.411-1.028.205v.514h-1.028l-1.027.41-2.056 1.85 1.028 1.232v1.232l-1.028.206-1.027.102-1.028 1.233-1.027 1.54-1.028.41v1.541l1.028.308v-1.643l1.027-.308h0v2.568l1.028-.103 1.027.41-1.027 1.952v2.054l1.027.616v2.26l1.028 1.129h1.028l1.028-1.027v2.054h3.083l2.055 2.054 2.055 2.054 4.11 1.027 4.111-3.081-1.027-2.054v-2.054l-1.028-1.951v-.103l1.028-.103 1.027-4.827 1.028-4.929h0zm22.608 28.345h-1.028v1.027l-1.027 1.027h1.027l1.028-2.054zm1.027 4.108h2.056l1.027-1.027-1.027-1.027h-2.056l-1.027 1.027v1.027h1.027zm-17.47-21.053v-2.464l-1.027.41-1.027 1.027-1.028 2.568v2.054h0l1.028 1.027h-1.028l-1.027 1.027h0v3.08h-1.028v-1.026l-1.028 2.054-1.027 2.054v3.08l-2.055 3.081-1.029 3.081 2.055 2.054 3.083-2.054 2.056-2.054h4.111l6.166-2.054 3.083-1.027 1.027-3.08v-3.081l-1.027-2.054h-1.028v1.027h-1.027v-2.054h0V52.32l-1.028-1.027-1.028-1.027v-2.054l-2.055 2.054-2.056 3.08v1.028h-1.027v-1.027l3.083-8.524-2.055-1.13-1.028-.102v1.848l-1.028 1.232zm43.16 53.916v1.027l-1.027-2.054v-2.054l-1.028-1.027h-2.055l-2.056-3.08-2.055-3.082-1.027 1.027h0l-1.028-1.027h-1.028v1.027h-5.138l-2.055 1.027-1.028-1.027H609.7l-1.028 1.027-2.055 4.108h-3.082l2.055-5.135v-4.107h-6.166l1.028-1.027v-1.027l-3.083 1.026-2.055-1.026 2.055-1.027 2.055-2.054 1.028-1.027h1.027l1.028-1.027-2.054-2.054-3.083-1.027-1.028-1.027v-1.027h-2.055l-2.055 1.027h-1.028l-6.166 7.189-4.11 7.189 1.027 1.027v3.08l-6.165 2.054-1.028-1.026h-2.055v1.026l2.055 3.081 1.028 2.054h-2.056l-1.028-2.054-2.055 1.027h-1.027v1.027l-1.028 1.027h-1.028v1.027h-3.082l-1.028 1.027h-1.027v-1.027l-1.028-1.027-2.055 1.027-1.028 1.027 1.028-2.054 1.027-1.027-6.165-2.054-6.166 1.027-1.028 1.027 2.056 1.027h2.055v1.027l-2.055 1.027h-2.056l-4.11 1.027-3.083 1.027h-6.166l-2.055 1.026h0l-4.11 2.054-2.056 2.054h-6.165l1.027 1.027 2.056 1.027-1.028 1.027-2.055 1.027-1.028 2.054v2.054l-2.055-2.054-3.083-1.027v1.027l3.083 3.081 2.055 2.054-1.027 1.027h0l-1.028-1.027-1.028-1.027-1.027 1.027h-2.055l2.055 2.054 3.083 3.081h0l-1.028 1.027h0v6.162h-1.027l-2.056 1.027h-1.027l1.027-1.027 1.028-1.027 1.027-1.027v-1.027l-4.11-1.027-3.083 1.027h-5.138l-6.166-1.027-6.165-1.027h-3.083l-2.055-1.027v1.027l-1.028 2.054-1.028 1.027 1.028 1.027v1.027h-1.028v2.054l1.028 1.027-1.028 3.08-1.027 2.055v1.027h0v1.027l-1.028 1.026 3.083 3.081 3.083 2.054v6.162l3.083 2.054 1.027 4.108-2.055 3.081-2.055 3.081 1.027 2.054-1.027 9.243-2.056 1.027-2.055 1.027 3.083 7.188 1.028 4.108h-1.028v-1.027l-2.055-1.027-1.028-1.027v-4.107l-1.027-2.054-1.028-1.027 4.11-10.27-1.027-2.054-2.055-1.027 1.027-1.027v-1.027h0v-1.027l3.083-2.054 3.083-4.107-3.083-2.054-5.138-1.027-1.028-3.081-1.027-3.081-3.083-4.108-3.083-3.081h-3.083l1.028 2.054 1.027 2.054 2.056 2.054 2.055 2.054v3.08l-2.055 2.055h-3.083v4.108l2.055 2.054 2.055 2.054v5.135l-1.027 5.134H472l-2.055-1.026-2.055 2.053-4.11 3.081h-1.028v1.027h0l-2.055 1.027v3.081l1.027 2.054 1.028 3.081h0l3.083 2.054 2.055 2.054h3.083l2.055-2.054 1.028 1.027v1.027l1.027 1.027 1.027 1.027-2.054 12.323-2.056 5.135-4.11 2.054v2.054h0v2.053l1.637 1.22-.945 1.635-1.72 1.253v1.026l1.027 1.027 1.028 3.081 1.028 5.135-1.028 4.108v7.189l1.028 3.08 3.083 1.027v2.054h0v5.136L472 260.795h-1.027l1.027 3.08h2.056l1.027 2.055 2.055 1.027 2.056-1.027 1.027 3.08-1.027 6.162-4.11 6.162h-2.056L472 282.361v2.054l1.028 1.027 2.055 1.027-1.027 2.054-1.028 1.027v1.027L472 292.63l-3.083 4.108-5.138 4.107 1.027 7.19 4.11 2.053 2.056 2.054-7.193 4.108-8.221 2.054v13.35l3.975 1.987 4.246-.96 4.11 1.028 3.083 1.027 2.055 1.026v1.027l1.028 1.027h1.027l2.056 2.054v3.081l1.027 2.054 3.083 1.027 2.055 3.081-2.055 1.027-3.083 2.054-1.027 3.08v3.082l4.11 4.108 2.055 5.135v1.026h-1.028v2.054l-1.027 1.027h-2.056l-2.055 4.108-.66 1.979-.368 1.102v1.027l1.028 1.027h-1.028l-1.027 2.054 1.027 1.027 1.028 1.027 1.027 9.242v1.027l-3.083 1.027-3.082 3.08 3.082 3.082 3.083 3.08h3.083l2.055-1.026 2.056 2.054 3.082 1.026 1.028 6.162 2.055 6.162-2.054 5.136 1.028 1.026h0v1.027l1.027 1.027 1.028 1.027v1.027l-2.056 2.054-2.055 1.027v1.027l-2.055 4.108h-2.055l-1.028 1.027-2.055 2.054-1.028 3.08 2.055 1.028 1.028 2.054 6.166 2.054 7.193 1.026 7.193-4.107 5.138-7.19 2.055-1.026 2.056-1.027 1.027-3.08 1.028-2.055h3.083l1.027-1.027h1.028v1.027h2.055l1.028-1.027 3.083 1.027 5.138-2.054-2.056-3.08-2.055-3.082-2.055-1.027-1.028-1.027v-2.054l3.083-2.054 3.083-1.027h1.027v-3.08l1.028-3.082v-2.054l1.028-1.027 1.027-1.026-1.027-2.054 1.027-3.081 4.11-4.108 3.084-2.054h1.027l1.028-1.027-1.028-1.027v-5.135l-1.027-2.054-2.056-1.027 2.056-5.134 3.082-5.135 3.083 1.027h3.084l2.055 1.026h4.11l1.028-4.107 1.028-1.027h2.055v2.054l2.055 6.162 4.111 2.054v-5.135h-1.028l4.11-8.216 8.222-5.135v-1.027l1.027-2.054 3.083-2.054h2.055l1.028 1.027v3.081l2.055 1.027h1.028v2.054h2.055l1.027 1.027 1.028 1.027h1.028l2.055-3.081v-1.027l2.055-2.054 1.028-3.08-2.056-3.082-2.055-2.054 1.028-1.027 1.027-1.027v-1.027h3.084v-4.107l-2.056-2.054-3.083-1.027-2.055-8.216 1.028-5.135v-1.027h0l1.027-1.026 2.252-.198 4.94-4.937 4.111-5.135v-2.054l-1.027-1.027 1.027-2.054 1.028-1.027-1.028-3.08-1.027-2.055 1.027-5.135 2.055-5.134v-1.028h0l2.056-1.027 1.027 1.027 1.028 1.027h0l1.027-1.027 1.028-1.027 2.055-1.027h1.028v-4.107h-4.11l-4.111-1.027-1.028-1.027-1.027-1.027h-2.055l-2.056-4.108 2.056-3.08v-3.082l2.055-3.08 1.027-1.028 1.028-2.054-2.055-2.054-2.056-2.054-1.027-2.054v-5.134l-1.028-2.054v-7.189l-1.027-1.026-1.028-1.027 2.055-2.054 3.083-2.054 1.028-11.297v-14.377l-2.055-3.081-1.028-4.108v-1.027l1.028-2.054h1.027v-1.027l2.055 1.027h2.056l2.055-2.054 3.083-1.027 3.083 1.027h2.055l2.055-3.08v-4.108l2.055-1.027 1.028-1.027v-2.054l1.028-3.081 4.11-3.081 4.11-3.081v-1.027l-1.027-3.08-2.055-4.109v-4.108l-1.028-4.108-2.055-2.054-2.056-1.026-1.027-1.027v-3.081l-1.028-1.027-1.027-4.108 1.027-4.108-1.027-1.027v-3.081h-1.028l-1.027-1.027 2.055-2.054 1.027-3.08 1.028-1.028v-2.054l1.028-1.027-2.056 1.027-1.027 1.027-2.056-1.027-3.082 2.054v3.081h2.055l3.083-1.027v1.027l-1.028 1.027h-1.027l-2.056 3.08-2.055 1.028-1.028-1.027h0l-1.027 2.054-2.055 1.027h0v3.08l-2.056-1.026-1.027-1.027v1.027h-7.193l-1.028 3.08-3.083 3.082h-1.027l1.027-2.054 2.056-2.054v-2.054l1.027-2.054 3.083-1.027 1.028-3.081-1.028-1.027-2.055-1.027h-1.028l6.166 1.027 4.11-4.108h1.028l1.027-2.054 1.028-2.054 2.055-2.054 2.055-2.054 1.028-3.081 6.166-4.108v-1.027l1.027-1.027 2.056-3.08 3.082-3.081 1.028-5.135-2.055-1.027-1.028-2.054v1.027l-1.027 1.027h0v-3.081h1.027l2.055 1.027v2.054l1.028-2.054v-5.135h-2.055v-3.08l-2.056-2.055v2.054h0zm-75.015-78.152l-1.028.206-1.027.616 1.027.41 1.028.309 1.027.924 1.028 1.027-1.028.103-1.027-.103v.72l1.027.205 1.028.103 1.027 1.13 1.028.615 2.055-.72 1.028-.923 8.22-1.027 1.028-.514v-5.546l2.056-1.232 1.027-1.232v-1.13l-1.027-1.13v-.205l-1.028-.514-2.055-4.826-1.028-3.8-2.055-.103v1.438l-5.138 2.875-4.11 3.287v1.745l1.027.41v.925l-1.028 1.027v1.13l-1.027 1.13-1.028.513-1.027.513v.822l1.027.72v.307h-1.027v-.205zM553.18 5.183l-1.028 1.335v.924h1.028l2.055.925 2.055-2.568-4.11-.616zm8.22 93.351l-2.055-1.026h0l1.028 2.054 2.055 1.026v-2.054H561.4zM216.003 330.819l1.031-3.078h-1.031l-1.031-1.026v-1.026h0l-1.031-1.026-1.031-1.026v-6.157l.576-1.719.455-1.359-2.062-2.052v-2.052l1.031-1.026h0v-1.026h-1.031l-2.063-3.078-3.093 1.026-2.062 4.104-2.062 1.026-2.062 1.026-2.062 3.078-2.063 2.052h-2.062l-1.031 1.026-4.124 2.052-3.093 3.079-8.249 1.026v1.026l2.062 3.078v2.052h0l3.094 2.052h5.155v5.13l3.093 1.026 2.062 2.052 1.031 2.052v2.053l1.031 4.104 1.031 4.104-1.031 1.026v2.052l2.062-1.026 1.032-2.052 1.031 1.026h1.031v3.078l2.062 2.052 1.031 2.053h3.093l1.031-1.026 1.031-1.026 4.124 1.026 4.125 2.052 1.031 2.052v1.026h2.062l2.062-1.026 1.031 1.026 1.031 1.026h2.062l1.031 3.078-1.031 2.052 5.156 7.183h3.093l2.062-2.053 1.031 2.053v1.026l7.217 3.078 6.187-5.13-3.093-5.131-3.094-4.104h1.031v-1.026l-1.031-2.052v-2.052h-1.031l2.063-3.078 2.062-1.026-3.093-3.078-3.094-1.026-1.031 1.026h-1.031v-2.053l-1.031-1.026-1.031 2.053h-2.062l-2.062 4.104-4.124-1.026-1.031-1.026-2.063-1.026h-4.124l-1.031-1.026-1.031-2.052h-1.031l2.062-5.131-1.031-1.026-1.031-1.026 2.062-2.052 2.063-3.078-3.094-1.026-2.062 2.052h-1.031l-2.062-6.156h2.062v-1.026l-1.031-2.052v-2.053z"/><path d="M151.381 293.114h-.582l-2.063-1.031-3.094-2.064v-1.031l-1.032-1.031-1.031-1.032h-2.063l-1.032-1.031-1.031-2.063-3.095-1.032-2.063-3.094-5.024 2.01-5.084 2.115.206 3.095-1.444 4.126.619 4.126 2.475 2.063h3.095v1.031l1.031 1.032h2.063v2.063h1.032l1.031 1.031 1.032 3.094-2.063 3.095-2.063 1.032h0l1.031 1.031h1.032v1.031l1.031 1.032h0l1.031-1.032h1.032l1.031 1.032v2.063l2.063 1.031h2.063l1.032 3.095 2.063 4.126v1.031l3.094 5.158v6.189l5.158-2.063 1.031-3.095 1.032-3.094h1.031v1.031l1.032 1.032h5.157l1.031-1.032 1.032-2.063 8.252 2.063 2.063-1.031 2.063-1.032 1.031 1.032h1.032v-2.063l-1.032-3.095-1.031-4.126-1.032-1.031h0v-3.095h-1.031v-3.094l-2.063-1.032-1.031-1.031v-2.063l-1.032-2.063v-2.063l-1.031-1.032-6.189-1.031-3.095-4.126-1.031-1.031-2.063-1.032h-2.063l-3.095 1.032v-2.063z"/><path d="M129.149 298.293v-1.019h-3.057l-2.446-2.037-.612-4.074-2.241-1.019-2.65-1.018-1.121-1.019-.917-2.037h-1.324l-1.529 1.019-2.446-1.019h-2.547l-.102 2.037.306 2.038-2.14 2.037-2.242 1.018.204 4.074 1.019 5.093-2.752 2.037-2.853 3.055h.408l.611 1.019.51 2.037.204 3.055-3.669 2.037-3.363-1.018-1.324 1.018-1.223 1.019h-1.019l-.51 1.018 1.019 2.037 1.529 3.056-1.019 6.111h1.732v1.019l-.51 1.018h1.63l.714 1.019.612 1.018 4.993-2.037 3.77 2.037 1.325-2.037.714-2.037 1.529 1.018v2.037h3.057l1.731-1.018h1.325l.815 1.018h.204l.204-1.018 1.121 1.018h4.585l3.057 1.019.611 2.037 1.019 2.037 2.038-1.018 1.019-1.019h3.057v-2.037l1.019-3.055 4.076-3.056 5.095-1.019 1.019-1.018 1.019-1.018v-1.019l-2.038-4.074-1.019-3.056h-2.037l-2.038-1.018v-2.037l-1.019-1.019h-1.019l-1.019 1.019h0l-1.019-1.019v-1.018h-1.019l-1.019-1.019h0l2.038-1.018 2.038-3.056-1.019-3.055-1.019-1.019h-1.019v-2.037h-2.038l-1.019-1.018z"/><path d="M106.596 261.27v-1.016l-2.447-1.017-2.854-1.017h0l.204 1.017-.612 1.017v1.016h-1.53l-1.325-1.016-1.121 2.033-1.428 2.034-.204 2.033-1.631 1.017 1.325 1.017h1.428l-1.02 2.033h-1.427v3.05l.204 2.034-1.02 1.017h-1.02l-1.529 3.05-1.02 2.034-.917 1.016-.715 1.017 1.122 6.101 1.835 1.016.816 1.017 2.345 2.034 4.179 1.016 4.384-1.016.715-1.017h.816l2.243-1.017 2.141-2.033-.306-2.034.102-2.034h2.549l2.447 1.017 1.529-1.017h1.326l.917 2.034 1.122 1.017 2.651 1.016 2.243 1.017 1.427-4.067-.204-3.05-1.325-1.017.204-1.017h-1.529l-1.019-2.033-1.122-2.034-2.141-1.016-1.835-1.017.306-1.017.509-2.033-1.019-1.017-.816-1.017-2.753-3.05-2.549-2.034.306-1.016-.918-2.034h-1.223l-.918-1.017h.102zm11.168-64.956l-3.901-1.035-5.442-1.034-4.005-5.173-4.312-5.171-1.437-2.069h-2.156l-1.335 1.034-2.259 2.069-3.08 3.103h-1.951l-.103 2.069.206 1.035h.308l.102 1.034h-.924l-1.027 1.034-.924 2.069-.41 3.104.41 2.069-.102 1.034-1.027 1.034-1.232 1.035.616 1.034 1.129 1.034.308 3.104-1.026 1.034.205 2.069-.411 1.034h2.259l1.027-1.034h3.594l3.593-1.034 1.745-1.035h1.643l.719-1.034.924-1.034 2.156 1.034 1.54 3.103h1.745l.924-1.034.924 1.034 1.027 1.035 7.906-2.069 3.969-4.17 1.678-4.106-1.335-1.034-1.54-2.069-.41-1.034z"/><path d="M138.675 176.103l-3.096-2.069-1.031 1.034-1.032 1.035-3.096 1.034-3.096 1.034h-1.032l-1.032-1.034-.929-1.034-5.676-1.035-5.78-2.069-1.444-1.034-1.342-2.069-1.651 1.034-1.445 1.035h.103l.516 1.034-.929 1.034-.928 1.035v2.069l-.619 3.103-5.263 4.139 4.334 5.172 4.025 5.172 5.469 1.034 3.922 1.034.31 2.069.412 1.035 1.548 2.069 1.342 1.034 2.889-1.034 2.224-1.086h1.013l1.046-1.015 2.06 4.128 6.145 2.11 1.079 1.003 2.016-2.037 2.064 1.034 2.065 1.034h1.031l1.032 2.069v2.069l3.096-4.138 3.096-1.034-1.032-1.034v-5.172l1.032-2.069v-2.069h2.064l1.248-1.25.816-.819-1.032-1.035 2.064-1.034h2.064l1.032-6.207h0l-4.128-1.033h-3.096l-2.064-1.035h-1.032l-1.032-2.069-2.064-1.034h-1.032l-1.032 1.034-2.064-1.034-1.032-1.035h-1.032l-2.064-3.103zm135.132 64.176l-2.06-2.049-2.059-3.074-2.06 1.025-1.864-1.238-1.225-.812 1.03-2.049-2.06-2.05h-2.059l-6.179-2.049-2.059 5.124 1.03 3.074-2.06 1.025 4.119 4.098 4.119 3.074-3.089 4.098-5.149 3.074v3.074l2.06 2.049-1.03 1.025-1.03 3.074-2.059 1.024-1.03 2.05-3.089 9.221-4.119 9.222-1.03 1.024-1.03-1.024v1.024l-1.03 1.025h-1.029l-1.03 1.024v5.123l1.03-1.024h1.029l1.03 3.074 1.03 2.049 3.089 1.024h3.089v1.025l1.03 1.024 1.03 1.025h1.03l1.029 3.074v1.024h4.119l2.06-2.049 1.029-3.074h0v-1.024l2.06-1.025h5.149l2.059-3.074 2.06-2.049 2.059 2.049h3.09v-2.049l1.029-3.074 5.149-1.025 3.089-3.074h0v-4.098l2.06-3.074-2.06-5.123 3.09-3.074 2.059-1.024 2.06-1.025 5.148-5.123 5.149-5.123v-2.049l2.06-4.098 3.089-4.099-10.298-1.024-6.178-6.148-3.09 1.025-2.059 1.024h0l-1.03-1.024h-1.029l-1.03 1.024h-2.06v-1.024h-4.119l-2.059 1.024zm124.953 25.044l-2.055-3.072-5.137 1.024-5.137-1.024v-7.168l-2.054-2.048-1.028-2.048v-3.072l1.028-2.048 1.027-1.024-2.055-2.048h-1.027l-1.028-1.024v-1.024h-2.054l-1.028 1.024h-1.027l-3.082-1.024-2.055 1.024-2.055 1.024h0l-3.082-3.072-2.055-3.072 2.055-1.024 1.027-1.024-2.054-1.023-1.028-1.024-3.082-2.048-3.082-1.024h-1.027l-1.028 1.024-1.027-1.024v-1.024h-2.055l-2.055 1.024-1.027-1.024h-3.082l-1.028-2.048 1.028-2.048-3.083-1.024-1.027-2.048 1.027-2.048h2.055l1.028-3.072 2.054-3.072v-1.024l-1.027-2.049v-2.048l-1.027-3.072-2.055 1.024-3.082 1.024v1.024h0l-2.055 1.024-2.055 1.024-2.055 1.024-1.027-2.048v-1.024h-2.055l-2.054 1.024h-1.028l-1.027 1.024h0l-2.055 1.024-1.027 1.024-1.028 6.144-4.109 4.096-4.11 4.096-2.054 4.096-2.055 4.096v1.024l1.027 1.024-1.027 2.048h-2.055l-1.027 3.072-1.028 2.048v1.024l1.028 1.024v3.072l3.082 2.048 3.082 2.048 3.082 7.168 1.028 2.048 2.054 3.072-2.054 4.096-1.028 4.096-1.027 2.048v3.072h0l2.055 1.024v2.048l-1.028 4.096-1.027 4.096 3.082 2.048 3.082 2.048v11.264l1.028 1.024 3.082 1.024h3.082l1.027-2.048 2.055-1.024h1.027l1.028 1.024h5.137l2.055 1.024h1.027l1.027-1.024 1.028-1.024 4.109-1.024 2.055-3.072 1.027-1.024h2.055l1.027 2.048 1.028 1.024h3.082l3.082 1.024 1.027 1.024h1.028l1.027 1.024 2.055 3.072 1.027 4.096h1.027l1.028 1.024v1.024l-1.028 1.024 2.055 2.048h1.028v5.12l2.054 1.024 3.083 2.048 1.027 1.024 1.027 1.024h3.082l2.055 2.048 4.11-4.096 4.109-4.096h6.165l3.082-5.12 1.027-4.096 1.027-1.024h1.028l1.027-2.048-1.027-2.048 1.027-1.024 1.027 1.024 4.11 1.024 4.109 1.024 1.028 1.024 1.027 1.024 2.055-1.024h2.055v2.048l2.054 2.048h4.11l4.109-1.024v2.048l2.055 2.048h3.082l1.028 1.024 2.054 1.024 1.028-1.024h1.027l3.082-2.048 2.055-1.024 3.082 2.048 3.083 1.024 8.218-2.048 7.192-4.096-2.055-2.048-4.109-2.048-1.027-7.168-2.055-4.096-2.055-2.048h-4.11l-2.054-3.072-2.055-3.072h-4.11l-3.082-3.072v-3.073h-1.027l-4.11 2.049-6.164 2.048-2.055-1.024-2.055-1.024h-7.191l-2.055-2.048-1.027-4.096-5.137-3.072-4.11-3.072-5.136-1.024-2.055-1.024-2.055-2.048z"/><path d="M439.213 317.297h-3.084l-2.055-2.061v-2.06l-4.111 1.03h-4.112l-2.055-2.061v-2.061h-2.056l-2.056 1.031-1.027-1.031-1.028-1.03-4.111-1.03-4.112-1.03-1.027-1.031h0l-1.028 1.031 1.028 2.06-1.028 2.061h-1.028l-1.028 1.03-1.027 4.122-3.084 5.151h-6.167l-4.111 4.122-4.111 4.121v3.091h-1.028v3.091h-1.028v1.031l1.028 1.03v4.121l1.028 2.061v2.061l-1.028 1.03 1.028 2.061 1.027 1.03 2.056 2.061 2.056 1.03 12.307 4.183-.961 1.066 7.154 4.024 5.139 8.243 7.195 1.03 1.027 4.121h6.167l1.028 1.031v-1.031l1.028-1.03h3.083l1.028 2.061-1.028 1.03v4.122l-1.028 1.031-1.027 1.03.521.522 1.534 1.539 2.056-1.031 1.028-3.091 1.027 1.03h7.195l2.056-1.03 1.027 1.03h1.028l1.028-1.03 2.056-2.061h1.027l1.028 1.031 1.028-1.031h7.195l1.027-1.03 2.056 1.03 2.056 1.031 3.083-2.061h4.111l1.028-3.091 2.056-4.122h2.055l1.028-1.03v-2.06h1.028v-1.031l-2.056-5.151-4.111-4.122v-3.091l1.028-3.091 3.083-2.061 2.056-1.03-2.056-3.091-3.083-1.03-1.028-2.061v-3.091l-2.056-2.061h-1.027l-1.028-1.03v-1.031l-2.056-1.03-3.083-1.03-4.111-1.031-4.247.963-3.976-1.993v-13.394l-3.083-1.031-3.084-2.061-2.055 1.031-3.084 2.061h-1.028l-1.027 1.03-2.056-1.03zm181.133-28.839h-3.076v4.11h-1.025l-2.05 1.027-1.025 1.028-1.025 1.028h0l-2.05-2.056-.94.471-1.11.557v1.027h0l-2.051 5.138-1.025 5.138 1.025 2.056 1.025 3.082-1.025 1.028-1.025 2.055 1.025 1.028v2.055l-4.1 5.138-4.928 4.941-2.246.197-1.026 1.028v1.027h0l-1.025 5.138 2.051 8.221 3.075 1.027 2.05 2.056v4.11h-3.076v1.028l-1.025 1.027-1.025 1.028 2.05 2.055 2.05 3.083-1.025 3.083-2.05 2.055v1.028l-2.05 3.082h-1.025l-1.025-1.027-1.025-1.028h-2.051v-2.055h-1.024l-2.05-1.027v-3.083l-1.025-1.028h-2.05l-3.075 2.056-1.026 2.055v1.027l-8.2 5.138-4.1 8.221h1.025v5.139l-4.101-2.056-2.05-6.165v-2.056h-2.05l-1.025 1.028-1.025 4.11h-4.1l-2.051-1.027h-3.075l-3.075-1.028-3.075 5.138-2.05 5.138 2.05 1.028 1.025 2.055v5.138l1.025 1.028-1.025 1.027h-1.025l-3.075 2.056-4.101 4.11-1.025 3.083 1.025 2.055-1.025 1.028-1.025 1.027v2.055l-1.025 3.083v3.083h-1.025l-3.075 1.028-3.076 2.054v2.055l1.025 1.028 2.051 1.028 2.05 3.082 2.05 3.083h2.05l5.126 4.111 5.125 4.111h4.1l1.025 1.027v2.055l1.025 1.028 4.1-3.083 4.101-4.11 1.025 2.055 1.025 3.083 4.1 3.083 5.125 3.083 1.025 3.082 1.025 2.056h1.025l1.025-1.028 7.176 6.166v2.055l1.025 2.055 1.025 1.028 2.05 2.055v4.111h1.025l1.025-1.027h4.1l3.076-3.083v-1.028l-7.176-2.055 3.075-1.028 5.126-2.055-1.025-1.027-2.051-1.028v-1.028l-1.025-1.027v-1.028l3.076 3.083 4.1 2.055 12.301-13.358 15.376-22.609-1.025-8.221 1.025-8.221 1.025-2.055h2.05l-1.025-2.055-2.05-1.028v-2.055h-2.051l-1.025-5.138 2.051-2.055 3.075-2.055 1.025 1.027h1.025l1.025-2.055 2.05-2.055 1.025 1.027v1.028h1.025l1.025 1.028h5.126l3.075-2.056 1.025-2.055 1.025 1.028 1.025 1.027h5.125l2.05-1.027v2.055l2.051 2.055h2.05l2.05-1.027 4.1 1.027 5.125-2.055 5.126-6.166 5.125 1.028-1.025 1.028h-1.025l-2.05 2.055 5.125-1.028h1.025l2.05 1.028 1.025-1.028 2.051-2.055 1.025 1.027h1.025v-6.165h-2.05l-1.025-7.193v-1.028h1.025v-3.082H688l1.025-1.028-2.05-2.055 2.05-2.055 3.076 1.027 2.05 1.028 4.1-1.028-1.025-2.055v-1.028l-1.025-1.027-1.025-2.056v-3.082l-1.025-2.056v-2.055l-1.025-2.055h-10.251v-2.055l-1.025-1.028v-2.055l-2.05-1.028-2.05-2.055-3.076-1.027h-4.1l-3.075 3.083h-2.05l-2.05 1.027-1.026 3.083-1.025 2.055h-2.05l-4.1 6.166-5.125 5.138 1.025-3.083-2.051-1.028-1.025-2.055v-1.027l-1.846 1.851-1.228 1.232h-6.151v1.027h-1.025l-3.076-1.027-1.025 2.055-5.125 1.028h-2.05l-1.025-4.111v-5.138l1.025-1.027 1.025-1.028v-3.083l2.05-6.165 2.05-5.138-3.075-3.083-1.025-5.138 2.05-2.055 1.025-2.056-2.05-3.082-2.05-2.056v-5.138l-1.025-7.193-3.075-3.083-3.075-1.027 2.05-3.083 1.025-1.028-1.025-3.083-1.025-2.055z"/></g></svg>