<svg xmlns="http://www.w3.org/2000/svg" width="29" height="29"><g fill="none" fill-rule="evenodd"><rect width="29" height="29" fill="#EEE" rx="14.5"/><g stroke="#000" stroke-linecap="round" stroke-linejoin="round" stroke-width="2"><path d="M20 17.333V12c0-.476-.255-.915-.667-1.153L14.667 8.18a1.335 1.335 0 00-1.334 0l-4.666 2.667A1.332 1.332 0 008 12v5.333c0 .476.255.916.667 1.154l4.666 2.666a1.33 1.33 0 001.334 0l4.666-2.666c.412-.238.667-.678.667-1.154z"/><path d="M8.18 11.307L14 14.673l5.82-3.366M14 21.387v-6.72"/></g></g></svg>