<svg xmlns="http://www.w3.org/2000/svg" width="106" height="20"><g fill="none" fill-rule="evenodd"><path d="M27.416 15.552v-8.46l6.034 8.46h2.398V2h-2.817v8.267L27.188 2H24.58v13.552zM43.424 4.807c1.307 0 2.43.426 3.37 1.278l.304-1.007h2.075v10.455h-2.19l-.228-.93-.204.171c-.894.712-1.937 1.068-3.127 1.068-1.548 0-2.833-.526-3.854-1.577-1.022-1.052-1.533-2.372-1.533-3.96 0-1.574.511-2.884 1.533-3.93 1.021-1.045 2.306-1.568 3.854-1.568zm.229 2.633c-.533 0-1.012.126-1.437.378a2.685 2.685 0 00-1 1.026 2.96 2.96 0 00-.361 1.461c0 .826.26 1.51.78 2.053.533.542 1.202.813 2.008.813s1.475-.271 2.008-.813c.533-.542.8-1.227.8-2.053 0-.826-.267-1.51-.8-2.052s-1.199-.813-1.998-.813zm11.839 8.402c1.295 0 2.335-.319 3.122-.958.787-.639 1.18-1.494 1.18-2.565a4.83 4.83 0 00-.048-.697 1.763 1.763 0 00-.18-.58 7.652 7.652 0 00-.267-.466 1.437 1.437 0 00-.371-.387 16.533 16.533 0 01-.4-.3 1.825 1.825 0 00-.476-.242l-.495-.184c-.12-.045-.3-.093-.542-.145a20.727 20.727 0 00-.514-.106c-.101-.02-.273-.055-.514-.107l-.628-.116a5.838 5.838 0 01-.514-.126 1.64 1.64 0 01-.447-.184.876.876 0 01-.248-.261.655.655 0 01-.104-.358c0-.31.12-.555.361-.736.241-.18.578-.271 1.01-.271 1.027 0 1.54.413 1.54 1.239h2.647c0-1.045-.378-1.888-1.133-2.526-.755-.64-1.751-.959-2.988-.959-1.238 0-2.237.31-2.998.93-.762.619-1.142 1.42-1.142 2.4 0 .478.082.897.247 1.259.165.36.359.645.58.851.223.207.521.39.895.552.375.161.698.274.971.339.273.064.619.129 1.037.194.66.116 1.155.251 1.485.406.33.155.495.394.495.716 0 .22-.07.41-.21.572-.139.16-.317.28-.532.358a2.144 2.144 0 01-.724.116c-.33 0-.621-.049-.875-.145a1.246 1.246 0 01-.6-.465 1.465 1.465 0 01-.238-.784h-2.703c0 .736.181 1.387.543 1.955.362.568.87 1.007 1.523 1.317.653.31 1.405.464 2.255.464zM66.551 4.807c1.307 0 2.43.426 3.37 1.278l.304-1.007H72.3v10.455h-2.19l-.228-.93-.203.171c-.895.712-1.938 1.068-3.128 1.068-1.548 0-2.833-.526-3.854-1.577-1.022-1.052-1.532-2.372-1.532-3.96 0-1.574.51-2.884 1.532-3.93 1.021-1.045 2.306-1.568 3.854-1.568zm.229 2.633c-.533 0-1.012.126-1.437.378a2.692 2.692 0 00-1 1.026 2.96 2.96 0 00-.361 1.461c0 .826.26 1.51.78 2.053.533.542 1.202.813 2.008.813s1.475-.271 2.008-.813c.533-.542.8-1.227.8-2.053 0-.826-.267-1.51-.8-2.052S67.58 7.44 66.78 7.44zM79.4 4.807c1.332 0 2.474.445 3.426 1.336l.438-1.045h1.808v9.234l-.006.321c-.039.95-.249 1.782-.632 2.496a4.391 4.391 0 01-1.817 1.83c-.787.426-1.72.639-2.799.639-1.395 0-2.56-.342-3.492-1.026-.933-.685-1.514-1.62-1.742-2.808h2.76l.064.16c.167.364.45.656.85.876.456.252.958.378 1.503.378.736 0 1.349-.223 1.837-.668.489-.446.733-1.043.733-1.791v-.387l-.215.148c-.799.52-1.704.781-2.716.781-.94 0-1.802-.23-2.589-.687a4.896 4.896 0 01-1.846-1.888 5.373 5.373 0 01-.667-2.652c0-1.459.492-2.698 1.476-3.717.983-1.02 2.192-1.53 3.626-1.53zm.323 2.556c-.748 0-1.37.255-1.865.764-.495.51-.742 1.152-.742 1.927 0 .787.244 1.436.732 1.945.489.51 1.114.765 1.875.765.762 0 1.39-.255 1.885-.765.495-.51.742-1.158.742-1.945 0-.775-.244-1.417-.733-1.927-.488-.51-1.12-.764-1.894-.764zm10.793 8.189v-5.44c0-.852.168-1.465.504-1.84.337-.374.898-.56 1.685-.56h1.2V5.04h-.915c-1.281 0-2.271.445-2.969 1.335l-.495-1.277h-1.79v10.454h2.78zm9.86-10.745c1.586 0 2.906.523 3.96 1.568 1.052 1.046 1.579 2.362 1.579 3.95 0 1.574-.53 2.888-1.59 3.94-1.059 1.051-2.376 1.577-3.95 1.577-1.052 0-2.004-.238-2.854-.716a5.115 5.115 0 01-1.99-1.984c-.475-.846-.713-1.785-.713-2.817 0-1.588.526-2.904 1.58-3.95 1.053-1.045 2.379-1.568 3.978-1.568zm-.01 2.653c-.805 0-1.462.267-1.97.803-.507.536-.761 1.223-.761 2.062 0 .413.066.8.2 1.161.133.362.32.665.561.91.241.246.53.44.866.581a2.84 2.84 0 001.114.213c.8 0 1.453-.268 1.96-.803.508-.536.762-1.223.762-2.062 0-.84-.254-1.526-.762-2.062-.507-.536-1.164-.803-1.97-.803z" fill="#111" fill-rule="nonzero"/><path fill="#3A558D" d="M16.714 0v17H0V0h16.714zm-2.95 3H9.833v4h3.933V3z"/></g></svg>