<svg width="61" height="61" xmlns="http://www.w3.org/2000/svg"><g fill="none" fill-rule="evenodd"><path d="M31 0v29.999L61 30v1l-30-.001V61h-1V31H0v-1h30V0h1z" fill="#FFF" opacity=".08"/><rect stroke="#FFF" x="41.5" y="14.5" width="9" height="1" rx=".5"/><rect stroke="#FFF" x="41.5" y="43.5" width="9" height="1" rx=".5"/><rect stroke="#FFF" x="41.5" y="48.5" width="9" height="1" rx=".5"/><path d="M14.646 10.646c.492-.146.617-.09.708 0A.5.5 0 0115.5 11h0v3.5H19a.498.498 0 01.354.854.498.498 0 01-.354.146h0-3.5V19a.498.498 0 01-.854.354A.498.498 0 0114.5 19h0v-3.5H11a.498.498 0 01-.354-.854A.498.498 0 0111 14.5h3.5V11c0-.138.056-.263.146-.354zM12.29 42.575l2.734 2.718 2.56-2.387a.498.498 0 01.841.383.498.498 0 01-.158.349h0l-2.561 2.386 2.388 2.56a.498.498 0 01-.383.841.498.498 0 01-.349-.159h0l-2.387-2.56-2.56 2.388a.498.498 0 01-.84-.383.498.498 0 01.159-.349h0l2.56-2.387-2.388-2.56a.498.498 0 01.383-.84h0z" stroke="#FFF"/></g></svg>